<svg width="19" height="24" viewBox="0 0 19 24" fill="none" xmlns="http://www.w3.org/2000/svg">
<g clip-path="url(#clip0_302_3381)">
<path d="M18.4048 8.18824C16.8482 9.17647 15.8867 10.8706 15.8867 12.7529C15.8867 14.8706 17.1229 16.8 19 17.6C18.6337 18.8235 18.0843 19.9529 17.3976 20.9882C16.3904 22.4471 15.3373 23.9529 13.7807 23.9529C12.2241 23.9529 11.7663 23.0118 9.93494 23.0118C8.1494 23.0118 7.50843 24 6.04337 24C4.57831 24 3.57108 22.6353 2.42651 20.9412C0.915663 18.5882 0.0457831 15.8588 0 12.9882C0 8.32941 2.93012 5.83529 5.86024 5.83529C7.41687 5.83529 8.6988 6.87059 9.66024 6.87059C10.5759 6.87059 12.041 5.78824 13.7807 5.78824C15.612 5.74118 17.3518 6.63529 18.4048 8.18824ZM12.9566 3.81176C13.7349 2.87059 14.147 1.69412 14.1928 0.470588C14.1928 0.329412 14.1928 0.141176 14.147 0C12.8193 0.141176 11.5831 0.8 10.7133 1.83529C9.93494 2.72941 9.47711 3.85882 9.43132 5.08235C9.43132 5.22353 9.43133 5.36471 9.47711 5.50588C9.56868 5.50588 9.70602 5.55294 9.79759 5.55294C11.0337 5.45882 12.1783 4.8 12.9566 3.81176Z" fill="#444444"/>
</g>
<defs>
<clipPath id="clip0_302_3381">
<rect width="19" height="24" fill="white"/>
</clipPath>
</defs>
</svg>
