<svg width="24" height="24" viewBox="0 0 24 24" fill="none" xmlns="http://www.w3.org/2000/svg">
<path d="M19 9C19.5129 9 19.936 9.46277 19.9932 10.0596L20 10.2002V17.4004C19.9998 19.3172 18.7507 20.8841 17.1758 20.9941L17 21H7C5.40208 21 4.09601 19.5012 4.00488 17.6123L4 17.4004V10.2002C4 9.5372 4.448 9 5 9H19ZM9.88281 11.0068C9.63983 11.0358 9.41542 11.153 9.25293 11.3359C9.09052 11.5189 9.00098 11.7553 9.00098 12C9.00098 12.2447 9.09052 12.4811 9.25293 12.6641C9.41542 12.847 9.63983 12.9642 9.88281 12.9932L10 13H14L14.1172 12.9932C14.3602 12.9642 14.5846 12.847 14.7471 12.6641C14.9095 12.4811 14.999 12.2447 14.999 12C14.999 11.7553 14.9095 11.5189 14.7471 11.3359C14.5846 11.153 14.3602 11.0358 14.1172 11.0068L14 11H10L9.88281 11.0068ZM20 3C20.5304 3 21.039 3.21086 21.4141 3.58594C21.7891 3.96101 22 4.46957 22 5C22 5.53043 21.7891 6.03899 21.4141 6.41406C21.039 6.78914 20.5304 7 20 7H4C3.46957 7 2.96101 6.78914 2.58594 6.41406C2.21086 6.03899 2 5.53043 2 5C2 4.46957 2.21086 3.96101 2.58594 3.58594C2.96101 3.21086 3.46957 3 4 3H20Z" fill="#0A0A0A"/>
</svg>
