<svg width="24" height="24" viewBox="0 0 24 24" fill="none" xmlns="http://www.w3.org/2000/svg">
<path d="M16.9996 4.12476C17.4828 4.12476 17.8745 4.51663 17.8746 4.99976V16.8865L20.3805 14.3806C20.7221 14.039 21.277 14.0393 21.6188 14.3806C21.9605 14.7223 21.9605 15.2772 21.6188 15.6189L17.6188 19.6189C17.2771 19.9605 16.7222 19.9606 16.3805 19.6189L12.3805 15.6189C12.0392 15.2772 12.039 14.7222 12.3805 14.3806C12.7221 14.039 13.277 14.0393 13.6188 14.3806L16.1246 16.8865V4.99976C16.1248 4.51678 16.5167 4.125 16.9996 4.12476ZM6.4469 4.32104C6.79044 4.04058 7.2983 4.06053 7.61877 4.38062L11.6188 8.38062C11.9605 8.72232 11.9605 9.27719 11.6188 9.6189C11.2771 9.96054 10.7222 9.96058 10.3805 9.6189L7.87463 7.11304V18.9998C7.87463 19.483 7.48288 19.8748 6.99963 19.8748C6.51659 19.8745 6.12463 19.4829 6.12463 18.9998V7.11304L3.61877 9.6189C3.27706 9.96054 2.72218 9.96058 2.38049 9.6189C2.03919 9.27718 2.03898 8.7222 2.38049 8.38062L6.38049 4.38062L6.4469 4.32104Z" fill="#0A0A0A"/>
</svg>
