<svg width="24" height="24" viewBox="0 0 24 24" fill="none" xmlns="http://www.w3.org/2000/svg">
<path d="M16.9996 6.125C17.0581 6.12497 17.1168 6.12997 17.1744 6.1416C17.1777 6.14227 17.1808 6.14382 17.1841 6.14453C17.2631 6.16143 17.3399 6.18961 17.4127 6.22852C17.4186 6.23169 17.4244 6.23498 17.4302 6.23828C17.4976 6.27637 17.5613 6.32349 17.6187 6.38086C17.6948 6.45697 17.7533 6.54417 17.7955 6.63672C17.7996 6.64573 17.8034 6.65489 17.8072 6.66406C17.8545 6.7779 17.8774 6.89916 17.8746 7.02051V16C17.8746 16.4832 17.4828 16.875 16.9996 16.875C16.5165 16.8748 16.1246 16.4831 16.1246 16V9.11328L7.61871 17.6191C7.27699 17.9606 6.72207 17.9608 6.38043 17.6191C6.039 17.2775 6.039 16.7225 6.38043 16.3809L14.8863 7.875H7.99957C7.51652 7.87477 7.12457 7.48311 7.12457 7C7.12457 6.51689 7.51652 6.12523 7.99957 6.125H16.9996Z" fill="#0A0A0A"/>
</svg>
