<svg width="24" height="24" viewBox="0 0 24 24" fill="none" xmlns="http://www.w3.org/2000/svg">
<path d="M3.18449 12L10.7172 19.5328C10.9159 19.7314 11.0127 19.9653 11.0077 20.2345C11.0026 20.5038 10.9007 20.7378 10.702 20.9365C10.5032 21.1352 10.2692 21.2345 9.99999 21.2345C9.73082 21.2345 9.49682 21.1352 9.29799 20.9365L1.62699 13.2808C1.44616 13.0999 1.31215 12.8973 1.22499 12.673C1.13782 12.4487 1.09424 12.2243 1.09424 12C1.09424 11.7757 1.13782 11.5513 1.22499 11.327C1.31215 11.1027 1.44616 10.9001 1.62699 10.7193L9.29799 3.04801C9.49682 2.84935 9.73341 2.7526 10.0077 2.75776C10.2821 2.76293 10.5186 2.86485 10.7172 3.06351C10.9159 3.26218 11.0152 3.49618 11.0152 3.76551C11.0152 4.03468 10.9159 4.2686 10.7172 4.46727L3.18449 12Z" fill="#0A0A0A"/>
</svg>
