<svg width="24" height="24" viewBox="0 0 24 24" fill="none" xmlns="http://www.w3.org/2000/svg">
<path d="M12 21C11.7167 21 11.4792 20.9042 11.2875 20.7125C11.0958 20.5208 11 20.2833 11 20V14.4L7.05 18.375C6.85 18.575 6.6125 18.675 6.3375 18.675C6.0625 18.675 5.825 18.575 5.625 18.375C5.425 18.175 5.325 17.9375 5.325 17.6625C5.325 17.3875 5.425 17.15 5.625 16.95L9.6 13H4C3.71667 13 3.47917 12.9042 3.2875 12.7125C3.09583 12.5208 3 12.2833 3 12C3 11.7167 3.09583 11.4792 3.2875 11.2875C3.47917 11.0958 3.71667 11 4 11H9.6L5.625 7.05C5.425 6.85 5.325 6.6125 5.325 6.3375C5.325 6.0625 5.425 5.825 5.625 5.625C5.825 5.425 6.0625 5.325 6.3375 5.325C6.6125 5.325 6.85 5.425 7.05 5.625L11 9.6V4C11 3.71667 11.0958 3.47917 11.2875 3.2875C11.4792 3.09583 11.7167 3 12 3C12.2833 3 12.5208 3.09583 12.7125 3.2875C12.9042 3.47917 13 3.71667 13 4V9.6L16.95 5.625C17.15 5.425 17.3875 5.325 17.6625 5.325C17.9375 5.325 18.175 5.425 18.375 5.625C18.575 5.825 18.675 6.0625 18.675 6.3375C18.675 6.6125 18.575 6.85 18.375 7.05L14.4 11H20C20.2833 11 20.5208 11.0958 20.7125 11.2875C20.9042 11.4792 21 11.7167 21 12C21 12.2833 20.9042 12.5208 20.7125 12.7125C20.5208 12.9042 20.2833 13 20 13H14.4L18.375 16.95C18.575 17.15 18.675 17.3875 18.675 17.6625C18.675 17.9375 18.575 18.175 18.375 18.375C18.175 18.575 17.9375 18.675 17.6625 18.675C17.3875 18.675 17.15 18.575 16.95 18.375L13 14.4V20C13 20.2833 12.9042 20.5208 12.7125 20.7125C12.5208 20.9042 12.2833 21 12 21Z" fill="#0A0A0A"/>
</svg>
