<svg width="32" height="32" viewBox="0 0 32 32" fill="none" xmlns="http://www.w3.org/2000/svg">
<g clip-path="url(#clip0_312_2567)">
<path d="M18.98 25.333C20.1333 25.333 20.7426 26.6983 19.9733 27.557C19.4735 28.1163 18.8612 28.5636 18.1764 28.8697C17.4917 29.1757 16.75 29.3336 16 29.333C15.2499 29.3336 14.5082 29.1757 13.8235 28.8697C13.1387 28.5636 12.5264 28.1163 12.0266 27.557C11.2906 26.7357 11.816 25.4517 12.872 25.3423L13.0186 25.3343L18.98 25.333Z" fill="black"/>
<path d="M16.0001 2.66699C17.8108 2.66699 19.3414 3.87099 19.8334 5.52166L19.8948 5.74966L19.9054 5.80699C21.3753 6.63619 22.6278 7.8018 23.5604 9.20833C24.493 10.6149 25.0791 12.2223 25.2708 13.899L25.3081 14.2817L25.3334 14.667V18.575L25.3614 18.7563C25.544 19.7388 26.0877 20.6173 26.8854 21.219L27.1081 21.375L27.3241 21.507C28.4708 22.1563 28.0708 23.8617 26.8214 23.9923L26.6668 24.0003H5.33343C3.96276 24.0003 3.48409 22.1817 4.67609 21.507C5.18413 21.2195 5.62309 20.8243 5.96215 20.3491C6.3012 19.8739 6.53214 19.3303 6.63876 18.7563L6.66676 18.5657L6.66809 14.6057C6.74939 12.8642 7.25631 11.1691 8.14447 9.66895C9.03264 8.16876 10.275 6.90913 11.7628 6.00033L12.0934 5.80566L12.1068 5.74833C12.2954 4.95103 12.724 4.23078 13.3349 3.68477C13.9457 3.13877 14.7094 2.7933 15.5228 2.69499L15.7654 2.67233L16.0001 2.66699Z" fill="black"/>
</g>
<defs>
<clipPath id="clip0_312_2567">
<rect width="32" height="32" fill="white"/>
</clipPath>
</defs>
</svg>
