<svg width="24" height="24" viewBox="0 0 24 24" fill="none" xmlns="http://www.w3.org/2000/svg">
<path d="M14.2354 19C15.1 19.0003 15.557 20.024 14.9805 20.668C14.6057 21.0873 14.1462 21.4228 13.6328 21.6523C13.1193 21.8819 12.5625 22.0005 12 22C11.4375 22.0005 10.8807 21.8819 10.3672 21.6523C9.8538 21.4228 9.39426 21.0873 9.01953 20.668C8.46786 20.052 8.8624 19.0888 9.6543 19.0068L9.76367 19.001L14.2354 19ZM12 2C13.3579 2.00001 14.5059 2.90281 14.875 4.14062L14.9209 4.31152L14.9287 4.35547C16.0311 4.97737 16.9705 5.85135 17.6699 6.90625C18.3693 7.96109 18.8094 9.16638 18.9531 10.4238L18.9814 10.7109L19 11V13.9307L19.0205 14.0674C19.1575 14.8041 19.5658 15.4628 20.1641 15.9141L20.3311 16.0312L20.4932 16.1299C21.353 16.6169 21.053 17.896 20.1162 17.9941L20 18H4C2.97202 18 2.61291 16.6359 3.50684 16.1299C3.88786 15.9143 4.21739 15.6181 4.47168 15.2617C4.72588 14.9055 4.89852 14.4977 4.97852 14.0674L5 13.9238L5.00098 10.9541C5.06194 9.6481 5.44238 8.37702 6.1084 7.25195C6.77452 6.12681 7.70643 5.18161 8.82227 4.5L9.07031 4.35352L9.08008 4.31055C9.22157 3.71285 9.54307 3.17305 10.001 2.76367C10.459 2.35427 11.0317 2.09529 11.6416 2.02148L11.8242 2.00391L12 2Z" fill="#0A0A0A"/>
</svg>
