<svg width="24" height="24" viewBox="0 0 24 24" fill="none" xmlns="http://www.w3.org/2000/svg">
<path d="M16.6748 3H7.29234C6.67712 3.00908 6.09041 3.27355 5.66076 3.73545C5.23111 4.19736 4.99355 4.81903 5.00013 5.46428V19.5434C4.99848 19.8246 5.07542 20.1001 5.22143 20.3359C5.36744 20.5718 5.57613 20.7576 5.82171 20.8704C6.05487 20.9859 6.31569 21.0255 6.57051 20.984C6.82533 20.9425 7.06245 20.8219 7.25126 20.6377L11.6467 16.5536C11.7471 16.4697 11.8717 16.424 12 16.424C12.1284 16.424 12.2529 16.4697 12.3533 16.5536L16.7487 20.6377C16.9387 20.8199 17.1757 20.9391 17.43 20.9805C17.6843 21.0219 17.9447 20.9836 18.1783 20.8704C18.4239 20.7576 18.6326 20.5718 18.7786 20.3359C18.9246 20.1001 19.0015 19.8246 18.9999 19.5434V5.46428C19.0031 5.14189 18.9454 4.82203 18.83 4.52319C18.7146 4.22436 18.5439 3.95249 18.3276 3.72332C18.1114 3.49414 17.854 3.31221 17.5703 3.18806C17.2866 3.0639 16.9822 2.99998 16.6748 3Z" fill="#0A0A0A"/>
</svg>
