<svg width="24" height="24" viewBox="0 0 24 24" fill="none" xmlns="http://www.w3.org/2000/svg">
<path d="M17.5001 5.44922C17.5015 5.31543 17.4773 5.18403 17.4308 5.06348C17.3843 4.94303 17.3169 4.8382 17.2365 4.75293C17.1561 4.66782 17.0646 4.60437 16.9689 4.5625C16.8973 4.53116 16.8234 4.51161 16.7492 4.50391L16.6749 4.5H7.31458L7.24134 4.50488C7.07009 4.52511 6.89808 4.60723 6.75892 4.75684C6.59764 4.93023 6.49737 5.17852 6.50013 5.44922V19.2881L10.6261 15.4551L10.6544 15.4277L10.6847 15.4023C11.0492 15.0977 11.5129 14.9238 12.0001 14.9238C12.4265 14.9238 12.8344 15.0575 13.174 15.2949L13.3156 15.4023L13.3458 15.4277L13.3742 15.4551L17.5001 19.2881V5.44922ZM6.48743 19.5508L6.46888 19.5625L6.47474 19.5508H6.48743ZM6.47474 19.5508L6.46888 19.5625L6.48743 19.5508H6.47474ZM19.0001 19.543C19.0018 19.8241 18.9245 20.1001 18.7784 20.3359C18.6325 20.5716 18.4242 20.7573 18.1788 20.8701C17.9452 20.9833 17.6841 21.0219 17.4298 20.9805C17.1757 20.939 16.939 20.8197 16.7492 20.6377L12.3536 16.5537C12.2533 16.4698 12.1285 16.4238 12.0001 16.4238C11.8718 16.4238 11.747 16.4698 11.6466 16.5537L7.25111 20.6377C7.06232 20.8218 6.8252 20.9429 6.57044 20.9844L6.47474 20.9961C6.25097 21.0147 6.02538 20.9712 5.82142 20.8701C5.63747 20.7855 5.47458 20.6598 5.3429 20.5029L5.22181 20.3359C5.0758 20.1001 4.99848 19.8241 5.00013 19.543V5.46387C4.99446 4.89945 5.17582 4.35315 5.50892 3.91602L5.66126 3.73535C6.09081 3.27368 6.67713 3.00918 7.29212 3H16.6749C16.9823 2.99998 17.2867 3.06432 17.5704 3.18848C17.8541 3.31263 18.1121 3.4945 18.3283 3.72363C18.5443 3.95272 18.7149 4.22478 18.8302 4.52344C18.9455 4.82208 19.0033 5.1417 19.0001 5.46387V19.543Z" fill="#0A0A0A"/>
</svg>
