<svg width="24" height="24" viewBox="0 0 24 24" fill="none" xmlns="http://www.w3.org/2000/svg">
<path d="M8.23047 4.5H15.8076V2.38477H17.3076V4.5H18.6924C19.1975 4.50003 19.6246 4.67543 19.9746 5.02539C20.3246 5.37536 20.5 5.80252 20.5 6.30762V19.6924C20.5 20.1975 20.3246 20.6246 19.9746 20.9746C19.6246 21.3246 19.1975 21.5 18.6924 21.5H5.30762C4.80251 21.5 4.37536 21.3246 4.02539 20.9746C3.67542 20.6246 3.50003 20.1975 3.5 19.6924V6.30762C3.50003 5.80252 3.67542 5.37536 4.02539 5.02539C4.37536 4.67543 4.80251 4.50003 5.30762 4.5H6.69238V2.38477H8.23047V4.5ZM5 19.6924C5.00003 19.7693 5.03255 19.8394 5.09668 19.9033C5.16064 19.9674 5.23067 20 5.30762 20H18.6924C18.7693 20 18.8394 19.9675 18.9033 19.9033C18.9674 19.8394 19 19.7693 19 19.6924V10.3076H5V19.6924ZM8 16.2305C8.24477 16.2305 8.4535 16.3169 8.62598 16.4893C8.79824 16.6615 8.8847 16.8704 8.88477 17.1152C8.88477 17.3601 8.7983 17.5689 8.62598 17.7412C8.45348 17.9137 8.24483 18 8 18C7.75517 18 7.54652 17.9137 7.37402 17.7412C7.2017 17.5689 7.11523 17.3601 7.11523 17.1152C7.1153 16.8704 7.20176 16.6615 7.37402 16.4893C7.5465 16.3169 7.75523 16.2305 8 16.2305ZM12 16.2305C12.2448 16.2305 12.4535 16.3169 12.626 16.4893C12.7982 16.6615 12.8847 16.8704 12.8848 17.1152C12.8848 17.3601 12.7983 17.5689 12.626 17.7412C12.4535 17.9137 12.2448 18 12 18C11.7552 18 11.5465 17.9137 11.374 17.7412C11.2017 17.5689 11.1152 17.3601 11.1152 17.1152C11.1153 16.8704 11.2018 16.6615 11.374 16.4893C11.5465 16.3169 11.7552 16.2305 12 16.2305ZM16 16.2305C16.2448 16.2305 16.4535 16.3169 16.626 16.4893C16.7982 16.6615 16.8847 16.8704 16.8848 17.1152C16.8848 17.3601 16.7983 17.5689 16.626 17.7412C16.4535 17.9137 16.2448 18 16 18C15.7552 18 15.5465 17.9137 15.374 17.7412C15.2017 17.5689 15.1152 17.3601 15.1152 17.1152C15.1153 16.8704 15.2018 16.6615 15.374 16.4893C15.5465 16.3169 15.7552 16.2305 16 16.2305ZM8 12.3076C8.24483 12.3076 8.45348 12.3941 8.62598 12.5664C8.79827 12.7389 8.88477 12.9476 8.88477 13.1924C8.88474 13.4373 8.79828 13.6461 8.62598 13.8184C8.45349 13.9908 8.24481 14.0771 8 14.0771C7.75519 14.0771 7.54651 13.9908 7.37402 13.8184C7.20172 13.6461 7.11526 13.4373 7.11523 13.1924C7.11523 12.9476 7.20173 12.7389 7.37402 12.5664C7.54652 12.3941 7.75517 12.3076 8 12.3076ZM12 12.3076C12.2448 12.3076 12.4535 12.3941 12.626 12.5664C12.7983 12.7389 12.8848 12.9476 12.8848 13.1924C12.8847 13.4373 12.7983 13.6461 12.626 13.8184C12.4535 13.9908 12.2448 14.0771 12 14.0771C11.7552 14.0771 11.5465 13.9908 11.374 13.8184C11.2017 13.6461 11.1153 13.4373 11.1152 13.1924C11.1152 12.9476 11.2017 12.7389 11.374 12.5664C11.5465 12.3941 11.7552 12.3076 12 12.3076ZM16 12.3076C16.2448 12.3076 16.4535 12.3941 16.626 12.5664C16.7983 12.7389 16.8848 12.9476 16.8848 13.1924C16.8847 13.4373 16.7983 13.6461 16.626 13.8184C16.4535 13.9908 16.2448 14.0771 16 14.0771C15.7552 14.0771 15.5465 13.9908 15.374 13.8184C15.2017 13.6461 15.1153 13.4373 15.1152 13.1924C15.1152 12.9476 15.2017 12.7389 15.374 12.5664C15.5465 12.3941 15.7552 12.3076 16 12.3076ZM5.30762 6C5.23067 6.00004 5.16064 6.03255 5.09668 6.09668C5.03255 6.16064 5.00004 6.23067 5 6.30762V8.80762H19V6.30762C19 6.23067 18.9674 6.16064 18.9033 6.09668C18.8394 6.03255 18.7693 6.00004 18.6924 6H5.30762Z" fill="#0A0A0A"/>
</svg>
