<svg width="32" height="32" viewBox="0 0 32 32" fill="none" xmlns="http://www.w3.org/2000/svg">
<g clip-path="url(#clip0_312_2555)">
<path d="M19.9998 4C20.6726 3.99979 21.3206 4.25388 21.8139 4.71133C22.3072 5.16878 22.6094 5.79579 22.6598 6.46667L22.6665 6.66667C22.6665 6.99324 22.7864 7.30845 23.0035 7.5525C23.2205 7.79654 23.5195 7.95246 23.8438 7.99067L23.9998 8H25.3332C26.3535 7.99994 27.3352 8.38977 28.0775 9.08971C28.8198 9.78966 29.2666 10.7468 29.3265 11.7653L29.3332 12V24C29.3332 25.0203 28.9434 26.002 28.2435 26.7443C27.5435 27.4867 26.5864 27.9335 25.5678 27.9933L25.3332 28H6.6665C5.64622 28.0001 4.66448 27.6102 3.92216 26.9103C3.17983 26.2103 2.73303 25.2532 2.67317 24.2347L2.6665 24V12C2.66645 10.9797 3.05627 9.99798 3.75622 9.25565C4.45616 8.51332 5.41331 8.06652 6.43184 8.00667L6.6665 8H7.99984C8.35346 8 8.6926 7.85952 8.94265 7.60948C9.19269 7.35943 9.33317 7.02029 9.33317 6.66667C9.33296 5.9939 9.58705 5.34591 10.0445 4.8526C10.502 4.35929 11.129 4.05712 11.7998 4.00667L11.9998 4H19.9998ZM15.9998 13.3333C15.0086 13.3333 14.0527 13.7012 13.3173 14.3658C12.582 15.0305 12.1196 15.9445 12.0198 16.9307L12.0052 17.1333L11.9998 17.3333L12.0052 17.5333C12.0443 18.315 12.3119 19.068 12.7747 19.699C13.2376 20.3301 13.8754 20.8115 14.6092 21.0837C15.343 21.3558 16.1405 21.4068 16.9029 21.2301C17.6653 21.0535 18.3592 20.6571 18.8986 20.09C19.4379 19.5229 19.7991 18.8101 19.9373 18.0398C20.0755 17.2695 19.9847 16.4755 19.6762 15.7563C19.3676 15.0371 18.8548 14.4241 18.2014 13.9935C17.5479 13.5628 16.7825 13.3333 15.9998 13.3333Z" fill="black"/>
</g>
<defs>
<clipPath id="clip0_312_2555">
<rect width="32" height="32" fill="white"/>
</clipPath>
</defs>
</svg>
