<svg width="24" height="24" viewBox="0 0 24 24" fill="none" xmlns="http://www.w3.org/2000/svg">
<path d="M12 2C13.3132 2 14.6139 2.2582 15.8271 2.76074C17.0404 3.26329 18.1427 4.00015 19.0713 4.92871C19.9998 5.85727 20.7367 6.95964 21.2393 8.17285C21.7418 9.38611 22 10.6868 22 12C22 13.3132 21.7418 14.6139 21.2393 15.8271C20.7367 17.0404 19.9998 18.1427 19.0713 19.0713C18.1427 19.9998 17.0404 20.7367 15.8271 21.2393C14.6139 21.7418 13.3132 22 12 22C10.6868 22 9.38611 21.7418 8.17285 21.2393C6.95964 20.7367 5.85727 19.9998 4.92871 19.0713C4.00015 18.1427 3.26329 17.0404 2.76074 15.8271C2.2582 14.6139 2 13.3132 2 12C2 10.6868 2.2582 9.38611 2.76074 8.17285C3.26329 6.95964 4.00015 5.85727 4.92871 4.92871C5.85727 4.00015 6.95964 3.26329 8.17285 2.76074C9.38611 2.2582 10.6868 2 12 2ZM16.707 7.29297C16.4392 7.02516 16.0429 6.93203 15.6836 7.05176L9.68359 9.05176C9.42238 9.13892 9.21028 9.32895 9.09473 9.5752L9.05176 9.68359L7.05176 15.6836C6.93198 16.0429 7.02514 16.4392 7.29297 16.707C7.5608 16.9748 7.95709 17.068 8.31641 16.9482L14.3164 14.9482C14.6147 14.8487 14.8487 14.6147 14.9482 14.3164L16.9482 8.31641C17.068 7.9571 16.9748 7.56079 16.707 7.29297ZM12 11C12.5523 11 13 11.4477 13 12C13 12.5523 12.5523 13 12 13C11.4477 13 11 12.5523 11 12C11 11.4477 11.4477 11 12 11Z" fill="#0A0A0A"/>
</svg>
