<svg width="24" height="24" viewBox="0 0 24 24" fill="none" xmlns="http://www.w3.org/2000/svg">
<path d="M7 6.125C7.48325 6.125 7.875 6.51675 7.875 7C7.875 7.48325 7.48325 7.875 7 7.875H6C5.70163 7.875 5.41508 7.99312 5.2041 8.2041C4.99312 8.41508 4.875 8.70163 4.875 9V18L4.88086 18.1113C4.90646 18.3688 5.01954 18.6113 5.2041 18.7959C5.41508 19.0069 5.70163 19.125 6 19.125H15C15.2984 19.125 15.5849 19.0069 15.7959 18.7959C16.0069 18.5849 16.125 18.2984 16.125 18V17C16.125 16.5168 16.5168 16.125 17 16.125C17.4832 16.125 17.875 16.5168 17.875 17V18C17.875 18.7625 17.5724 19.494 17.0332 20.0332C16.494 20.5724 15.7625 20.875 15 20.875H6C5.2375 20.875 4.50596 20.5724 3.9668 20.0332C3.42763 19.494 3.125 18.7625 3.125 18V9C3.125 8.2375 3.42763 7.50596 3.9668 6.9668C4.50596 6.42763 5.2375 6.125 6 6.125H7ZM18.9004 2.125C19.6893 2.1251 20.4461 2.43828 21.0039 2.99609C21.5618 3.55403 21.875 4.31154 21.875 5.10059C21.8749 5.88902 21.5612 6.64441 21.0039 7.20215L19.7334 8.47656C19.7007 8.5268 19.6632 8.57508 19.6191 8.61914C19.5756 8.66269 19.5281 8.69998 19.4785 8.73242L12.6201 15.6182C12.4559 15.7829 12.2326 15.875 12 15.875H9C8.51675 15.875 8.125 15.4832 8.125 15V12C8.12503 11.7674 8.21807 11.544 8.38281 11.3799L15.2695 4.51758C15.3014 4.46932 15.3384 4.42335 15.3809 4.38086C15.4245 4.3372 15.4718 4.29911 15.5215 4.2666L16.7959 2.99707C17.3538 2.43913 18.1113 2.125 18.9004 2.125ZM9.875 12.3623V14.125H11.6367L17.751 7.98926L16.0107 6.24902L9.875 12.3623ZM18.9004 3.875C18.5757 3.875 18.2639 4.00392 18.0342 4.2334L18.0322 4.23535L17.251 5.0127L18.9863 6.74805L19.7656 5.96777L19.7666 5.9668C19.9962 5.73716 20.1249 5.42533 20.125 5.10059C20.125 4.77567 19.9964 4.46315 19.7666 4.2334C19.5369 4.00377 19.2251 3.8751 18.9004 3.875Z" fill="black"/>
</svg>
