<svg width="24" height="24" viewBox="0 0 24 24" fill="none" xmlns="http://www.w3.org/2000/svg">
<path d="M12 21.4C11.7653 21.4 11.5384 21.3548 11.3192 21.2645C11.1001 21.174 10.9001 21.0435 10.7192 20.873L3.12698 13.2807C2.95648 13.0999 2.82598 12.8999 2.73548 12.6807C2.64514 12.4616 2.59998 12.2346 2.59998 12C2.59998 11.7653 2.64514 11.5358 2.73548 11.3115C2.82598 11.0871 2.95648 10.8897 3.12698 10.7192L10.7192 3.12698C10.9001 2.94614 11.1001 2.81314 11.3192 2.72798C11.5384 2.64264 11.7653 2.59998 12 2.59998C12.2346 2.59998 12.4641 2.64264 12.6885 2.72798C12.9128 2.81314 13.1102 2.94614 13.2807 3.12698L20.873 10.7192C21.0538 10.8897 21.1868 11.0871 21.272 11.3115C21.3573 11.5358 21.4 11.7653 21.4 12C21.4 12.2346 21.3573 12.4616 21.272 12.6807C21.1868 12.8999 21.0538 13.0999 20.873 13.2807L13.2807 20.873C13.1102 21.0435 12.9128 21.174 12.6885 21.2645C12.4641 21.3548 12.2346 21.4 12 21.4ZM12.2212 19.8037L19.8037 12.2212C19.8551 12.1699 19.8807 12.0961 19.8807 12C19.8807 11.9038 19.8551 11.8301 19.8037 11.7787L12.2212 4.19623C12.1699 4.14489 12.0961 4.11923 12 4.11923C11.9038 4.11923 11.8301 4.14489 11.7787 4.19623L4.19623 11.7787C4.14489 11.8301 4.11923 11.9038 4.11923 12C4.11923 12.0961 4.14489 12.1699 4.19623 12.2212L11.7787 19.8037C11.8301 19.8551 11.9038 19.8807 12 19.8807C12.0961 19.8807 12.1699 19.8551 12.2212 19.8037ZM11.25 13.0865H12.75V7.47123H11.25V13.0865ZM12 15.702C12.2256 15.702 12.4166 15.6237 12.573 15.4672C12.7295 15.3109 12.8077 15.1199 12.8077 14.8942C12.8077 14.6686 12.7295 14.4776 12.573 14.3212C12.4166 14.1647 12.2256 14.0865 12 14.0865C11.7743 14.0865 11.5833 14.1647 11.427 14.3212C11.2705 14.4776 11.1922 14.6686 11.1922 14.8942C11.1922 15.1199 11.2705 15.3109 11.427 15.4672C11.5833 15.6237 11.7743 15.702 12 15.702Z" fill="#0A0A0A"/>
</svg>
