<svg width="24" height="24" viewBox="0 0 24 24" fill="none" xmlns="http://www.w3.org/2000/svg">
<path d="M12 21.4C11.7653 21.4 11.5385 21.3541 11.3195 21.2625C11.1005 21.1708 10.9004 21.041 10.7192 20.873L3.12698 13.2807C2.95898 13.0996 2.82914 12.8995 2.73748 12.6805C2.64581 12.4615 2.59998 12.2346 2.59998 12C2.59998 11.7653 2.64514 11.5358 2.73548 11.3115C2.82598 11.0871 2.95648 10.8897 3.12698 10.7192L10.7192 3.12698C10.9004 2.94364 11.1005 2.80998 11.3195 2.72598C11.5385 2.64198 11.7653 2.59998 12 2.59998C12.2346 2.59998 12.4641 2.64264 12.6885 2.72798C12.9128 2.81314 13.1102 2.94614 13.2807 3.12698L20.873 10.7192C21.0538 10.8897 21.1868 11.0864 21.272 11.3092C21.3573 11.5321 21.4 11.7623 21.4 12C21.4 12.2346 21.358 12.4615 21.274 12.6805C21.19 12.8995 21.0563 13.0996 20.873 13.2807L13.2807 20.873C13.1102 21.0435 12.9136 21.174 12.6907 21.2645C12.4679 21.3548 12.2376 21.4 12 21.4ZM11.25 13.0865H12.75V7.47123H11.25V13.0865ZM12 15.702C12.2288 15.702 12.4206 15.6246 12.5755 15.4697C12.7303 15.3149 12.8077 15.1231 12.8077 14.8942C12.8077 14.6654 12.7303 14.4736 12.5755 14.3187C12.4206 14.1639 12.2288 14.0865 12 14.0865C11.7711 14.0865 11.5793 14.1639 11.4245 14.3187C11.2696 14.4736 11.1922 14.6654 11.1922 14.8942C11.1922 15.1231 11.2696 15.3149 11.4245 15.4697C11.5793 15.6246 11.7711 15.702 12 15.702Z" fill="#0A0A0A"/>
</svg>
