<svg width="24" height="24" viewBox="0 0 24 24" fill="none" xmlns="http://www.w3.org/2000/svg">
<path fill-rule="evenodd" clip-rule="evenodd" d="M16.2049 7.02C15.0649 5.93 13.6149 5.375 11.9999 5.375C9.13501 5.375 6.71007 7.30988 5.845 9.90976V9.91055C5.625 10.5705 5.5 11.2755 5.5 12.0005C5.5 12.7253 5.62491 13.43 5.84477 14.0898H5.84492C6.70992 16.6898 9.13492 18.6248 11.9999 18.6248C13.4799 18.6248 14.7399 18.2348 15.7249 17.5748L15.7251 17.575C16.89 16.795 17.665 15.63 17.92 14.255H12V10H22.36C22.49 10.72 22.56 11.47 22.56 12.25C22.56 15.6 21.36 18.42 19.28 20.335H19.2798C17.4598 22.0149 14.9698 22.9998 11.9999 22.9998C7.70014 22.9998 3.9803 20.5351 2.1702 16.9404L2.17 16.9405C1.425 15.4555 1 13.7755 1 12.0005C0.999321 10.2852 1.4 8.5934 2.17 7.06055H2.17063L2.16992 7.06C3.97992 3.465 7.69992 1 11.9999 1C14.9649 1 17.4549 2.09 19.3599 3.865L16.2049 7.02Z" fill="#444444"/>
</svg>
