<svg width="24" height="24" viewBox="0 0 24 24" fill="none" xmlns="http://www.w3.org/2000/svg">
<path d="M9.18555 17.1338C9.61471 17.1764 10.0185 17.3662 10.3262 17.6738C10.6778 18.0255 10.875 18.5027 10.875 19C10.875 19.4973 10.6778 19.9745 10.3262 20.3262C9.97454 20.6778 9.49728 20.875 9 20.875C8.50272 20.875 8.02546 20.6778 7.67383 20.3262C7.3662 20.0185 7.17644 19.6147 7.13379 19.1855L7.125 19C7.125 18.5027 7.3222 18.0255 7.67383 17.6738C8.02546 17.3222 8.50272 17.125 9 17.125L9.18555 17.1338ZM15.1855 17.1338C15.6147 17.1764 16.0185 17.3662 16.3262 17.6738C16.6778 18.0255 16.875 18.5027 16.875 19C16.875 19.4973 16.6778 19.9745 16.3262 20.3262C15.9745 20.6778 15.4973 20.875 15 20.875C14.5027 20.875 14.0255 20.6778 13.6738 20.3262C13.3662 20.0185 13.1764 19.6147 13.1338 19.1855L13.125 19C13.125 18.5027 13.3222 18.0255 13.6738 17.6738C14.0255 17.3222 14.5027 17.125 15 17.125L15.1855 17.1338ZM9.18555 10.1338C9.61471 10.1764 10.0185 10.3662 10.3262 10.6738C10.6778 11.0255 10.875 11.5027 10.875 12C10.875 12.4973 10.6778 12.9745 10.3262 13.3262C9.97454 13.6778 9.49728 13.875 9 13.875C8.50272 13.875 8.02546 13.6778 7.67383 13.3262C7.3662 13.0185 7.17644 12.6147 7.13379 12.1855L7.125 12C7.125 11.5027 7.3222 11.0255 7.67383 10.6738C8.02546 10.3222 8.50272 10.125 9 10.125L9.18555 10.1338ZM15.1855 10.1338C15.6147 10.1764 16.0185 10.3662 16.3262 10.6738C16.6778 11.0255 16.875 11.5027 16.875 12C16.875 12.4973 16.6778 12.9745 16.3262 13.3262C15.9745 13.6778 15.4973 13.875 15 13.875C14.5027 13.875 14.0255 13.6778 13.6738 13.3262C13.3662 13.0185 13.1764 12.6147 13.1338 12.1855L13.125 12C13.125 11.5027 13.3222 11.0255 13.6738 10.6738C14.0255 10.3222 14.5027 10.125 15 10.125L15.1855 10.1338ZM9.18555 3.13379C9.61471 3.17644 10.0185 3.3662 10.3262 3.67383C10.6778 4.02546 10.875 4.50272 10.875 5C10.875 5.49728 10.6778 5.97454 10.3262 6.32617C9.97454 6.6778 9.49728 6.875 9 6.875C8.50272 6.875 8.02546 6.6778 7.67383 6.32617C7.3662 6.01854 7.17644 5.61471 7.13379 5.18555L7.125 5C7.125 4.50272 7.3222 4.02546 7.67383 3.67383C8.02546 3.3222 8.50272 3.125 9 3.125L9.18555 3.13379ZM15.1855 3.13379C15.6147 3.17644 16.0185 3.3662 16.3262 3.67383C16.6778 4.02546 16.875 4.50272 16.875 5C16.875 5.49728 16.6778 5.97454 16.3262 6.32617C15.9745 6.6778 15.4973 6.875 15 6.875C14.5027 6.875 14.0255 6.6778 13.6738 6.32617C13.3662 6.01854 13.1764 5.61471 13.1338 5.18555L13.125 5C13.125 4.50272 13.3222 4.02546 13.6738 3.67383C14.0255 3.3222 14.5027 3.125 15 3.125L15.1855 3.13379Z" fill="#0A0A0A"/>
</svg>
