<svg width="24" height="24" viewBox="0 0 24 24" fill="none" xmlns="http://www.w3.org/2000/svg">
<path d="M7.85414 2.55483C6.01814 2.51563 4.23627 3.33536 3.07227 4.73376C0.91947 7.32283 0.790136 11.6282 3.70694 14.5546C3.7224 14.5703 3.73894 14.5852 3.75574 14.6004L11.4349 21.214C11.76 21.4932 12.2405 21.4932 12.5653 21.214L20.2459 14.6004C20.2627 14.5852 20.2779 14.5703 20.2933 14.5546C23.2101 11.6279 23.0792 7.32283 20.9267 4.73376C19.7643 3.3351 17.9808 2.51536 16.1459 2.55483C14.6237 2.5863 13.1557 3.43216 12 4.81696C10.8445 3.43216 9.37654 2.5863 7.85414 2.55483Z" fill="black"/>
</svg>
