<svg width="24" height="24" viewBox="0 0 24 24" fill="none" xmlns="http://www.w3.org/2000/svg">
<path d="M12 2C15.5929 2 18.2392 2.42477 19.9072 4.09277C21.5752 5.76078 22 8.40715 22 12C22 15.5929 21.5752 18.2392 19.9072 19.9072C18.2392 21.5752 15.5929 22 12 22C8.40715 22 5.76078 21.5752 4.09277 19.9072C2.42477 18.2392 2 15.5929 2 12C2 8.40715 2.42477 5.76078 4.09277 4.09277C5.76078 2.42477 8.40715 2 12 2ZM9.5 11.3301C9.28677 11.3301 9.00716 11.4188 8.69336 11.7207L4.33691 16.0762C4.58373 17.1932 4.96876 17.9551 5.50684 18.4932C6.53883 19.5252 8.39285 20 12 20C15.6071 20 17.4612 19.5252 18.4932 18.4932C19.0312 17.9551 19.4153 17.1931 19.6621 16.0762L17.3066 13.7207L17.1904 13.6172C16.9238 13.398 16.6866 13.3301 16.5 13.3301C16.2868 13.3301 16.0072 13.4188 15.6934 13.7207L15.4141 14L16.707 15.293C17.0974 15.6835 17.0974 16.3165 16.707 16.707C16.3165 17.0974 15.6835 17.0974 15.293 16.707L10.3066 11.7207L10.1904 11.6172C9.92379 11.398 9.68658 11.3301 9.5 11.3301ZM12 4C8.39285 4 6.53883 4.47484 5.50684 5.50684C4.47484 6.53883 4 8.39285 4 12C4 12.5573 4.01218 13.0728 4.03516 13.5498L7.30664 10.2793C7.92077 9.68838 8.67731 9.33008 9.5 9.33008C10.3227 9.33008 11.0792 9.68838 11.6934 10.2793L14 12.5859L14.3066 12.2793C14.9208 11.6884 15.6773 11.3301 16.5 11.3301C17.3227 11.3301 18.0792 11.6884 18.6934 12.2793L19.9639 13.5498C19.9868 13.0727 20 12.5573 20 12C20 8.39285 19.5252 6.53883 18.4932 5.50684C17.4612 4.47484 15.6071 4 12 4ZM15.0098 7C15.5621 7 16.0098 7.44772 16.0098 8C16.0098 8.55228 15.5621 9 15.0098 9H15C14.4477 9 14 8.55228 14 8C14 7.44772 14.4477 7 15 7H15.0098Z" fill="#0A0A0A"/>
</svg>
