<svg width="24" height="24" viewBox="0 0 24 24" fill="none" xmlns="http://www.w3.org/2000/svg">
<path d="M18 3.125C18.7625 3.125 19.494 3.42763 20.0332 3.9668C20.5724 4.50596 20.875 5.2375 20.875 6V18C20.875 18.7625 20.5724 19.494 20.0332 20.0332C19.494 20.5724 18.7625 20.875 18 20.875H6C5.2375 20.875 4.50596 20.5724 3.9668 20.0332C3.42763 19.494 3.125 18.7625 3.125 18V6C3.125 5.2375 3.42763 4.50596 3.9668 3.9668C4.50596 3.42763 5.2375 3.125 6 3.125H18ZM4.875 18L4.88086 18.1113C4.90646 18.3688 5.01954 18.6113 5.2041 18.7959C5.41508 19.0069 5.70163 19.125 6 19.125H18C18.2984 19.125 18.5849 19.0069 18.7959 18.7959C19.0069 18.5849 19.125 18.2984 19.125 18V13.875H17.3633L14.6191 16.6191C14.455 16.7832 14.2321 16.875 14 16.875H10C9.76794 16.875 9.54495 16.7832 9.38086 16.6191L6.63672 13.875H4.875V18ZM6 4.875C5.70163 4.875 5.41508 4.99312 5.2041 5.2041C4.99312 5.41508 4.875 5.70163 4.875 6V12.125H7C7.23206 12.125 7.45505 12.2168 7.61914 12.3809L10.3633 15.125H13.6367L16.3809 12.3809L16.4453 12.3232C16.601 12.1956 16.7969 12.125 17 12.125H19.125V6C19.125 5.70163 19.0069 5.41508 18.7959 5.2041C18.6113 5.01954 18.3688 4.90646 18.1113 4.88086L18 4.875H6Z" fill="#0A0A0A"/>
</svg>
