<svg width="24" height="24" viewBox="0 0 24 24" fill="none" xmlns="http://www.w3.org/2000/svg">
<g clip-path="url(#clip0_333_984)">
<path d="M6.97913 3.07352C7.86419 2.92272 8.77181 2.97247 9.63509 3.21909C10.4984 3.46572 11.2953 3.90294 11.9671 4.49852L12.0041 4.53152L12.0381 4.50152C12.6793 3.93882 13.4331 3.51932 14.2493 3.27101C15.0655 3.02269 15.9252 2.95128 16.7711 3.06152L17.0171 3.09752C18.0834 3.28163 19.0801 3.75068 19.9016 4.45499C20.7231 5.15931 21.3388 6.07267 21.6836 7.09836C22.0283 8.12405 22.0893 9.22388 21.86 10.2814C21.6307 11.3389 21.1197 12.3147 20.3811 13.1055L20.2011 13.2905L20.1531 13.3315L12.7031 20.7105C12.5312 20.8807 12.3034 20.9828 12.062 20.9978C11.8206 21.0129 11.5819 20.94 11.3901 20.7925L11.2961 20.7105L3.80313 13.2885C3.00935 12.5162 2.44483 11.5392 2.17209 10.4658C1.89935 9.39238 1.92903 8.26442 2.25785 7.20684C2.58666 6.14926 3.20179 5.20332 4.03509 4.4738C4.86839 3.74427 5.88735 3.25962 6.97913 3.07352Z" fill="#222222"/>
</g>
<defs>
<clipPath id="clip0_333_984">
<rect width="24" height="24" fill="white"/>
</clipPath>
</defs>
</svg>
