<svg width="24" height="24" viewBox="0 0 24 24" fill="none" xmlns="http://www.w3.org/2000/svg">
<path d="M22 17C22 17.7652 21.7076 18.5019 21.1826 19.0586C20.6577 19.6152 19.9395 19.9502 19.1758 19.9951L19 20H5C4.23479 20 3.49815 19.7076 2.94141 19.1826C2.38477 18.6577 2.04977 17.9396 2.00488 17.1758L2 17V7.53516L11.4453 13.832L11.5605 13.8975C11.6973 13.9643 11.8478 13.999 12 13.999C12.1522 13.999 12.3027 13.9643 12.4395 13.8975L12.5547 13.832L22 7.53516V17ZM19 4C20.0799 4.00002 21.0267 4.56993 21.5547 5.42676L12 11.7969L2.44531 5.42676C2.69594 5.01982 3.04003 4.67857 3.44922 4.43164C3.85868 4.18464 4.3217 4.03871 4.79883 4.00684L5 4H19Z" fill="#0A0A0A"/>
</svg>
