<svg width="24" height="24" viewBox="0 0 24 24" fill="none" xmlns="http://www.w3.org/2000/svg">
<path fill-rule="evenodd" clip-rule="evenodd" d="M7.39456 4.64217C9.04394 3.44032 11.069 2.86722 13.1035 3.02596C15.1378 3.18486 17.0484 4.06543 18.4912 5.50838C19.9341 6.95145 20.8139 8.86249 20.9727 10.897C21.1313 12.9316 20.5592 14.9567 19.3575 16.606C18.1557 18.2554 16.4033 19.4208 14.418 19.8931C12.5393 20.34 10.5682 20.1372 8.82328 19.3248L4.00296 20.9605C3.72961 21.0531 3.42684 20.9819 3.22269 20.7779C3.01862 20.5738 2.94759 20.271 3.04007 19.9976L4.67484 15.1754C3.86288 13.4306 3.6607 11.4601 4.10746 9.58162C4.57979 7.59613 5.74519 5.84404 7.39456 4.64217ZM12.9844 4.53865C11.3105 4.40814 9.64414 4.87991 8.28714 5.86873C6.93049 6.85754 5.97166 8.29895 5.58304 9.93221C5.19458 11.5655 5.40195 13.2841 6.168 14.7779C6.26167 14.9605 6.27778 15.1744 6.21195 15.3687L4.97171 19.0279L8.63187 17.7877L8.70511 17.7672C8.87854 17.7273 9.06194 17.7497 9.22171 17.8316C10.7156 18.5979 12.4341 18.8052 14.0674 18.4166C15.7007 18.0279 17.1421 17.0694 18.1309 15.7125C19.1196 14.3554 19.5915 12.6892 19.461 11.0152C19.3304 9.34106 18.6053 7.76804 17.418 6.58064C16.2307 5.39344 14.6583 4.66924 12.9844 4.53865ZM12.5166 15.151C12.899 15.19 13.1973 15.5131 13.1973 15.9058C13.1971 16.2984 12.8989 16.6207 12.5166 16.6597L12.4385 16.6637H12.4297C12.011 16.6635 11.6712 16.3245 11.6709 15.9058C11.6709 15.4869 12.0109 15.1472 12.4297 15.147H12.4385L12.5166 15.151ZM10.6582 6.93416C11.3422 6.53229 12.1469 6.38504 12.9287 6.51912C13.7107 6.65331 14.4207 7.06053 14.9317 7.66756C15.4423 8.27436 15.7217 9.04246 15.7207 9.83553L15.71 10.0689C15.6037 11.2099 14.7346 11.9825 14.0821 12.4176C13.7311 12.6516 13.3841 12.826 13.1192 12.9459V13.3043C13.1189 13.7231 12.7792 14.063 12.3604 14.0631C11.9416 14.0629 11.6018 13.723 11.6016 13.3043V12.4371L11.6114 12.316C11.6556 12.0406 11.8495 11.8079 12.1202 11.7174L12.1211 11.7164C12.1237 11.7155 12.1289 11.714 12.1358 11.7115C12.1498 11.7065 12.1725 11.6984 12.2022 11.6871C12.2622 11.6642 12.3513 11.6285 12.459 11.5806C12.6767 11.4839 12.9612 11.3409 13.2403 11.1549C13.8446 10.752 14.203 10.2997 14.2032 9.83553V9.83357L14.1963 9.67146C14.1635 9.29504 14.0155 8.93623 13.7705 8.6451C13.4903 8.31221 13.1007 8.0888 12.6719 8.01521C12.2432 7.94175 11.8018 8.02234 11.4268 8.24275C11.0518 8.46325 10.7665 8.80987 10.6221 9.22029L10.5928 9.29158C10.4292 9.6393 10.0257 9.81423 9.65531 9.68416C9.26009 9.54512 9.05251 9.11164 9.19144 8.71638L9.24417 8.57771C9.52073 7.89027 10.0171 7.31106 10.6582 6.93416Z" fill="#0A0A0A"/>
</svg>
