<svg width="24" height="24" viewBox="0 0 24 24" fill="none" xmlns="http://www.w3.org/2000/svg">
<path d="M12.4854 2.13672C13.6164 2.19237 14.7309 2.44269 15.7793 2.87695C16.9773 3.37322 18.0655 4.10069 18.9824 5.01758C19.8993 5.93447 20.6268 7.02275 21.123 8.2207C21.6193 9.41879 21.875 10.7032 21.875 12L21.8633 12.4854C21.8076 13.6164 21.5573 14.7309 21.123 15.7793C20.6268 16.9773 19.8993 18.0655 18.9824 18.9824C18.0655 19.8993 16.9773 20.6268 15.7793 21.123C14.7309 21.5573 13.6164 21.8076 12.4854 21.8633L12 21.875C10.7032 21.875 9.41879 21.6193 8.2207 21.123C7.02275 20.6268 5.93447 19.8993 5.01758 18.9824C4.10069 18.0655 3.37322 16.9773 2.87695 15.7793C2.44269 14.7309 2.19237 13.6164 2.13672 12.4854L2.125 12C2.125 10.7032 2.38069 9.41879 2.87695 8.2207C3.37321 7.02275 4.10069 5.93447 5.01758 5.01758C5.93447 4.10069 7.02275 3.37321 8.2207 2.87695C9.41879 2.38069 10.7032 2.125 12 2.125L12.4854 2.13672ZM12 3.875C10.933 3.875 9.87638 4.08486 8.89062 4.49316C7.90485 4.90148 7.00936 5.50041 6.25488 6.25488C5.50041 7.00936 4.90148 7.90485 4.49316 8.89062C4.08486 9.87638 3.875 10.933 3.875 12L3.88477 12.3994C3.93056 13.3299 4.13588 14.2468 4.49316 15.1094C4.90148 16.0951 5.50041 16.9906 6.25488 17.7451C7.00936 18.4996 7.90486 19.0985 8.89062 19.5068C9.87638 19.9151 10.933 20.125 12 20.125L12.3994 20.1152C13.3299 20.0694 14.2468 19.8641 15.1094 19.5068C16.0951 19.0985 16.9906 18.4996 17.7451 17.7451C18.4996 16.9906 19.0985 16.0951 19.5068 15.1094C19.9151 14.1236 20.125 13.067 20.125 12L20.1152 11.6006C20.0694 10.6701 19.8641 9.75319 19.5068 8.89062C19.0985 7.90486 18.4996 7.00936 17.7451 6.25488C16.9906 5.50041 16.0951 4.90148 15.1094 4.49316C14.2468 4.13588 13.3299 3.93056 12.3994 3.88477L12 3.875ZM15 14.125C15.4832 14.125 15.875 14.5168 15.875 15C15.875 15.4832 15.4832 15.875 15 15.875H9C8.51675 15.875 8.125 15.4832 8.125 15C8.125 14.5168 8.51675 14.125 9 14.125H15ZM9.00977 9.125C9.49301 9.125 9.88477 9.51675 9.88477 10C9.88477 10.4832 9.49301 10.875 9.00977 10.875H9C8.51675 10.875 8.125 10.4832 8.125 10C8.125 9.51675 8.51675 9.125 9 9.125H9.00977ZM15.0098 9.125C15.493 9.125 15.8848 9.51675 15.8848 10C15.8848 10.4832 15.493 10.875 15.0098 10.875H15C14.5168 10.875 14.125 10.4832 14.125 10C14.125 9.51675 14.5168 9.125 15 9.125H15.0098Z" fill="black"/>
</svg>
