<svg width="24" height="24" viewBox="0 0 24 24" fill="none" xmlns="http://www.w3.org/2000/svg">
<path d="M17 2C17.5523 2 18 2.44772 18 3V4.07617C18.975 4.17215 19.6312 4.38903 20.1211 4.87891C20.9998 5.75759 21 7.17157 21 10V16C21 18.8284 20.9998 20.2424 20.1211 21.1211C19.2424 21.9998 17.8284 22 15 22H9C6.17157 22 4.75759 21.9998 3.87891 21.1211C3.00023 20.2424 3 18.8284 3 16V10C3 7.17157 3.00023 5.75759 3.87891 4.87891C4.36878 4.38903 5.02503 4.17215 6 4.07617V3C6 2.44772 6.44772 2 7 2C7.55228 2 8 2.44772 8 3V4.00195C8.31221 4.00021 8.64496 4 9 4H11V3C11 2.44772 11.4477 2 12 2C12.5523 2 13 2.44772 13 3V4H15C15.355 4 15.6878 4.00021 16 4.00195V3C16 2.44772 16.4477 2 17 2ZM7.75 13.5C7.33579 13.5 7 13.8358 7 14.25C7 14.6642 7.33579 15 7.75 15H14.25C14.6642 15 15 14.6642 15 14.25C15 13.8358 14.6642 13.5 14.25 13.5H7.75ZM7.75 10C7.33579 10 7 10.3358 7 10.75C7 11.1642 7.33579 11.5 7.75 11.5H16.25C16.6642 11.5 17 11.1642 17 10.75C17 10.3358 16.6642 10 16.25 10H7.75Z" fill="#0A0A0A"/>
</svg>
