<svg width="32" height="32" viewBox="0 0 32 32" fill="none" xmlns="http://www.w3.org/2000/svg">
<path d="M2 10C2 5.58172 5.58172 2 10 2H22C26.4183 2 30 5.58172 30 10V22C30 26.4183 26.4183 30 22 30H10C5.58172 30 2 26.4183 2 22V10Z" fill="#FAF7F5"/>
<path d="M22 27V30H10V27H22ZM27 22V10C27 7.23858 24.7614 5 22 5H10C7.23858 5 5 7.23858 5 10V22C5 24.7614 7.23858 27 10 27V30L9.58789 29.9893C5.49764 29.7817 2.2183 26.5024 2.01074 22.4121L2 22V10C2 5.58172 5.58172 2 10 2H22C26.4183 2 30 5.58172 30 10V22C30 26.2801 26.6389 29.7748 22.4121 29.9893L22 30V27C24.7614 27 27 24.7614 27 22Z" fill="#DEDAD6"/>
<path d="M15.482 12.8131L15.132 14.8571C15.566 14.7871 15.958 14.7591 16.336 14.7591C18.576 14.7591 19.78 16.1871 19.78 18.0351C19.78 20.2891 18.072 21.8151 15.818 21.8151C14.53 21.8151 13.382 21.2271 12.668 20.5551L13.648 19.1271C14.306 19.6731 15.034 20.1491 15.93 20.1491C17.218 20.1491 17.904 19.3511 17.904 18.1191C17.904 16.9991 17.246 16.3131 15.958 16.3551C15.44 16.3971 14.936 16.4951 14.432 16.6771L13.256 16.3271C13.69 13.6391 13.97 11.9871 14.124 11.0911H19.416V12.8131H15.482Z" fill="#726961"/>
</svg>
