<svg width="32" height="32" viewBox="0 0 32 32" fill="none" xmlns="http://www.w3.org/2000/svg">
<path d="M2 10C2 5.58172 5.58172 2 10 2H22C26.4183 2 30 5.58172 30 10V22C30 26.4183 26.4183 30 22 30H10C5.58172 30 2 26.4183 2 22V10Z" fill="#FAF7F5"/>
<path d="M22 27V30H10V27H22ZM27 22V10C27 7.23858 24.7614 5 22 5H10C7.23858 5 5 7.23858 5 10V22C5 24.7614 7.23858 27 10 27V30L9.58789 29.9893C5.49764 29.7817 2.2183 26.5024 2.01074 22.4121L2 22V10C2 5.58172 5.58172 2 10 2H22C26.4183 2 30 5.58172 30 10V22C30 26.2801 26.6389 29.7748 22.4121 29.9893L22 30V27C24.7614 27 27 24.7614 27 22Z" fill="#DEDAD6"/>
<path d="M16.798 15.0529C18.422 15.0529 19.948 16.1029 19.948 18.2449C19.948 20.2189 18.436 21.8289 16.182 21.8289C13.914 21.8289 12.5 20.3169 12.5 18.0629C12.5 17.1109 12.948 16.0329 13.746 14.9129L16.588 11.0769H18.94C17.876 12.3789 16.882 13.6529 15.86 14.9549L15.51 15.2909L15.664 15.2209C15.986 15.1089 16.364 15.0529 16.798 15.0529ZM14.348 18.3429C14.348 19.5329 15.076 20.2469 16.154 20.2469C17.218 20.2469 18.072 19.4909 18.072 18.3569C18.072 17.1249 17.302 16.5089 16.168 16.5089C15.048 16.5089 14.348 17.2229 14.348 18.3429Z" fill="#726961"/>
</svg>
