<svg width="32" height="32" viewBox="0 0 32 32" fill="none" xmlns="http://www.w3.org/2000/svg">
<path d="M2 10C2 5.58172 5.58172 2 10 2H22C26.4183 2 30 5.58172 30 10V22C30 26.4183 26.4183 30 22 30H10C5.58172 30 2 26.4183 2 22V10Z" fill="#FAF7F5"/>
<path d="M22 27V30H10V27H22ZM27 22V10C27 7.23858 24.7614 5 22 5H10C7.23858 5 5 7.23858 5 10V22C5 24.7614 7.23858 27 10 27V30L9.58789 29.9893C5.49764 29.7817 2.2183 26.5024 2.01074 22.4121L2 22V10C2 5.58172 5.58172 2 10 2H22C26.4183 2 30 5.58172 30 10V22C30 26.2801 26.6389 29.7748 22.4121 29.9893L22 30V27C24.7614 27 27 24.7614 27 22Z" fill="#DEDAD6"/>
<path d="M19.752 12.624L15.51 21.654H13.368C14.558 19.078 15.86 16.684 17.05 14.122C17.106 14.024 17.232 13.772 17.316 13.632V13.618C17.33 13.604 17.33 13.604 17.33 13.604L17.386 13.492C17.386 13.492 17.386 13.478 17.4 13.478V13.464C17.498 13.268 17.596 13.1 17.694 12.974H12.696V11.252H19.752V12.624Z" fill="#726961"/>
</svg>
