<svg width="32" height="32" viewBox="0 0 32 32" fill="none" xmlns="http://www.w3.org/2000/svg">
<path d="M2 10C2 5.58172 5.58172 2 10 2H22C26.4183 2 30 5.58172 30 10V22C30 26.4183 26.4183 30 22 30H10C5.58172 30 2 26.4183 2 22V10Z" fill="#FAF7F5"/>
<path d="M22 27V30H10V27H22ZM27 22V10C27 7.23858 24.7614 5 22 5H10C7.23858 5 5 7.23858 5 10V22C5 24.7614 7.23858 27 10 27V30L9.58789 29.9893C5.49764 29.7817 2.2183 26.5024 2.01074 22.4121L2 22V10C2 5.58172 5.58172 2 10 2H22C26.4183 2 30 5.58172 30 10V22C30 26.2801 26.6389 29.7748 22.4121 29.9893L22 30V27C24.7614 27 27 24.7614 27 22Z" fill="#DEDAD6"/>
<path d="M15.601 17.6009C14.117 17.6009 12.661 16.5789 12.661 14.5629C12.661 12.6589 14.145 11.1189 16.273 11.1189C18.443 11.1189 19.787 12.5609 19.787 14.6189C19.787 15.9209 18.989 17.2369 18.317 18.2729L16.007 21.7869H13.767L16.791 17.6289C17.057 17.3489 17.225 17.1809 17.267 17.1389L16.973 17.3069C16.567 17.5449 16.105 17.6009 15.601 17.6009ZM17.981 14.4369C17.981 13.3169 17.267 12.6869 16.245 12.6869C15.181 12.6869 14.551 13.4009 14.551 14.4229C14.551 15.5569 15.153 16.1029 16.231 16.1029C17.365 16.1029 17.981 15.4449 17.981 14.4369Z" fill="#726961"/>
</svg>
