<svg width="32" height="32" viewBox="0 0 32 32" fill="none" xmlns="http://www.w3.org/2000/svg">
<path d="M2 10C2 5.58172 5.58172 2 10 2H22C26.4183 2 30 5.58172 30 10V22C30 26.4183 26.4183 30 22 30H10C5.58172 30 2 26.4183 2 22V10Z" fill="#FAF7F5"/>
<path d="M22 27V30H10V27H22ZM27 22V10C27 7.23858 24.7614 5 22 5H10C7.23858 5 5 7.23858 5 10V22C5 24.7614 7.23858 27 10 27V30L9.58789 29.9893C5.49764 29.7817 2.2183 26.5024 2.01074 22.4121L2 22V10C2 5.58172 5.58172 2 10 2H22C26.4183 2 30 5.58172 30 10V22C30 26.2801 26.6389 29.7748 22.4121 29.9893L22 30V27C24.7614 27 27 24.7614 27 22Z" fill="#DEDAD6"/>
<path d="M17.676 19.918H19.482V21.472H13.714V19.918H15.758V14.22L15.814 13.31L14.106 14.864L13 13.604L16.024 11H17.676V19.918Z" fill="#726961"/>
</svg>
