<svg width="32" height="32" viewBox="0 0 32 32" fill="none" xmlns="http://www.w3.org/2000/svg">
<path d="M2 10C2 5.58172 5.58172 2 10 2H22C26.4183 2 30 5.58172 30 10V22C30 26.4183 26.4183 30 22 30H10C5.58172 30 2 26.4183 2 22V10Z" fill="#FAF7F5"/>
<path d="M22 27V30H10V27H22ZM27 22V10C27 7.23858 24.7614 5 22 5H10C7.23858 5 5 7.23858 5 10V22C5 24.7614 7.23858 27 10 27V30L9.58789 29.9893C5.49764 29.7817 2.2183 26.5024 2.01074 22.4121L2 22V10C2 5.58172 5.58172 2 10 2H22C26.4183 2 30 5.58172 30 10V22C30 26.2801 26.6389 29.7748 22.4121 29.9893L22 30V27C24.7614 27 27 24.7614 27 22Z" fill="#DEDAD6"/>
<path d="M16.378 11C18.324 11 19.682 12.246 19.682 14.038C19.64 15.508 18.604 16.726 17.568 17.804L15.398 19.988C15.776 19.89 16.112 19.876 16.434 19.876H19.794V21.64H12.5V20.52L16.014 17.062C17.078 15.998 17.736 15.158 17.736 14.08C17.736 13.114 17.162 12.61 16.252 12.61C15.468 12.61 14.908 13.142 14.684 13.758C14.614 13.968 14.586 14.178 14.572 14.458L12.738 14.15C13.074 12.008 14.46 11 16.378 11Z" fill="#726961"/>
</svg>
