<svg width="32" height="32" viewBox="0 0 32 32" fill="none" xmlns="http://www.w3.org/2000/svg">
<path d="M2 10C2 5.58172 5.58172 2 10 2H22C26.4183 2 30 5.58172 30 10V22C30 26.4183 26.4183 30 22 30H10C5.58172 30 2 26.4183 2 22V10Z" fill="#FAF7F5"/>
<path d="M22 27V30H10V27H22ZM27 22V10C27 7.23858 24.7614 5 22 5H10C7.23858 5 5 7.23858 5 10V22C5 24.7614 7.23858 27 10 27V30L9.58789 29.9893C5.49764 29.7817 2.2183 26.5024 2.01074 22.4121L2 22V10C2 5.58172 5.58172 2 10 2H22C26.4183 2 30 5.58172 30 10V22C30 26.2801 26.6389 29.7748 22.4121 29.9893L22 30V27C24.7614 27 27 24.7614 27 22Z" fill="#DEDAD6"/>
<path d="M16.546 11C18.506 11.042 19.808 12.26 19.766 13.814C19.766 15.004 19.08 15.704 18.198 16.138C19.43 16.6 19.948 17.398 19.948 18.63C19.906 20.772 18.198 21.906 16.238 21.906C14.11 21.906 13.06 20.842 12.5 19.008L14.208 18.336C14.432 19.232 15.216 20.226 16.21 20.226C17.442 20.226 18.044 19.456 18.044 18.672C18.044 17.692 17.778 17.02 15.594 17.02V15.62C17.442 15.578 17.876 14.99 17.876 14.094C17.89 13.128 17.344 12.652 16.434 12.652C15.244 12.652 14.838 13.436 14.656 14.444C14.054 14.346 13.452 14.22 12.836 14.122C13.242 11.98 14.572 11 16.546 11Z" fill="#726961"/>
</svg>
