<svg width="32" height="32" viewBox="0 0 32 32" fill="none" xmlns="http://www.w3.org/2000/svg">
<path d="M2 10C2 5.58172 5.58172 2 10 2H22C26.4183 2 30 5.58172 30 10V22C30 26.4183 26.4183 30 22 30H10C5.58172 30 2 26.4183 2 22V10Z" fill="#FAF7F5"/>
<path d="M22 27V30H10V27H22ZM27 22V10C27 7.23858 24.7614 5 22 5H10C7.23858 5 5 7.23858 5 10V22C5 24.7614 7.23858 27 10 27V30L9.58789 29.9893C5.49764 29.7817 2.2183 26.5024 2.01074 22.4121L2 22V10C2 5.58172 5.58172 2 10 2H22C26.4183 2 30 5.58172 30 10V22C30 26.2801 26.6389 29.7748 22.4121 29.9893L22 30V27C24.7614 27 27 24.7614 27 22Z" fill="#DEDAD6"/>
<path d="M16.217 21.9129C14.033 21.9129 12.507 20.7369 12.507 18.7909C12.507 17.6009 13.039 16.6769 14.271 16.1869C13.375 15.6969 12.871 14.8849 12.871 13.8769C12.871 12.1549 14.271 10.9929 16.217 10.9929C18.191 10.9929 19.605 12.1549 19.605 13.8769C19.605 14.8849 19.087 15.7249 18.177 16.1869C19.409 16.6769 19.941 17.6009 19.941 18.7909C19.941 20.7369 18.415 21.9129 16.217 21.9129ZM16.217 15.5009C17.309 15.5009 17.743 14.6329 17.743 13.9049C17.743 13.1069 17.225 12.4769 16.217 12.4769C15.209 12.4769 14.719 13.1069 14.719 13.9049C14.719 14.6329 15.139 15.5009 16.217 15.5009ZM16.217 20.3729C17.337 20.3729 18.023 19.7289 18.023 18.7629C18.023 17.6429 17.295 17.0129 16.217 17.0129C15.139 17.0129 14.453 17.6429 14.453 18.7629C14.453 19.7289 15.097 20.3729 16.217 20.3729Z" fill="#726961"/>
</svg>
