<svg width="24" height="24" viewBox="0 0 24 24" fill="none" xmlns="http://www.w3.org/2000/svg">
<path d="M12 14.0869C13.2375 14.0869 14.4563 14.232 15.6562 14.5215C16.8562 14.811 18.0377 15.2451 19.2002 15.8242C19.7439 16.1044 20.1797 16.5107 20.5078 17.043C20.8359 17.5752 20.9999 18.159 21 18.7939V19.9326C18.8011 22.4255 15.5854 24 12 24C8.41461 24 5.19889 22.4255 3 19.9326V18.7939C3.00007 18.159 3.16413 17.5752 3.49219 17.043C3.82027 16.5107 4.25617 16.1044 4.7998 15.8242C5.96228 15.2452 7.14378 14.811 8.34375 14.5215C9.54373 14.232 10.7625 14.0869 12 14.0869ZM12 4C13.2375 4 14.2965 4.43944 15.1777 5.31738C16.059 6.19533 16.5 7.25054 16.5 8.4834C16.4999 9.71614 16.0589 10.7715 15.1777 11.6494C14.2965 12.5272 13.2374 12.9658 12 12.9658C10.7626 12.9658 9.70346 12.5272 8.82227 11.6494C7.94108 10.7715 7.50006 9.71614 7.5 8.4834C7.5 7.25057 7.94106 6.19532 8.82227 5.31738C9.7035 4.43945 10.7625 4.00001 12 4Z" fill="white"/>
</svg>
