<svg width="32" height="32" viewBox="0 0 32 32" fill="none" xmlns="http://www.w3.org/2000/svg">
<g clip-path="url(#clip0_312_2563)">
<path d="M11.7505 15.483C12.3598 14.9763 12.9745 14.9763 13.5985 15.4977L13.7425 15.6283L20.3905 22.2763L20.5158 22.387C20.7724 22.5859 21.0927 22.6843 21.4166 22.6639C21.7406 22.6434 22.046 22.5055 22.2755 22.276C22.505 22.0464 22.6429 21.7411 22.6634 21.4171C22.6838 21.0932 22.5854 20.7729 22.3865 20.5163L22.2758 20.391L20.5532 18.667L20.9425 18.2763L21.0838 18.1497C21.6932 17.643 22.3078 17.643 22.9318 18.1643L23.0758 18.295L29.3078 24.5283C29.1816 25.798 28.6044 26.9804 27.6808 27.8608C26.7573 28.7413 25.5488 29.2615 24.2745 29.327L23.9998 29.3337H7.99984C6.67705 29.3336 5.40149 28.8419 4.42085 27.9542C3.4402 27.0664 2.82446 25.8459 2.69317 24.5297L11.6092 15.6097L11.7505 15.483ZM23.9998 2.66699C25.3682 2.66699 26.6841 3.19291 27.6756 4.13596C28.667 5.07901 29.2581 6.36705 29.3265 7.73366L29.3332 8.00033V20.7803L24.9425 16.391L24.7425 16.2083C23.0678 14.7483 20.9425 14.7457 19.2812 16.1857L19.0758 16.3723L18.6665 16.7803L15.6092 13.7243L15.4092 13.5417C13.7345 12.0817 11.6092 12.079 9.94784 13.519L9.7425 13.7057L2.6665 20.7803V8.00033C2.6665 6.632 3.19242 5.31602 4.13547 4.32458C5.07852 3.33313 6.36656 2.74208 7.73317 2.67366L7.99984 2.66699H23.9998ZM20.0132 9.33366L19.8438 9.34299C19.5198 9.38154 19.2211 9.5376 19.0044 9.78161C18.7877 10.0256 18.668 10.3406 18.668 10.667C18.668 10.9933 18.7877 11.3084 19.0044 11.5524C19.2211 11.7964 19.5198 11.9524 19.8438 11.991L19.9998 12.0003L20.1692 11.991C20.4932 11.9524 20.7919 11.7964 21.0086 11.5524C21.2253 11.3084 21.345 10.9933 21.345 10.667C21.345 10.3406 21.2253 10.0256 21.0086 9.78161C20.7919 9.5376 20.4932 9.38154 20.1692 9.34299L20.0132 9.33366Z" fill="black"/>
</g>
<defs>
<clipPath id="clip0_312_2563">
<rect width="32" height="32" fill="white"/>
</clipPath>
</defs>
</svg>
