<svg width="24" height="24" viewBox="0 0 24 24" fill="none" xmlns="http://www.w3.org/2000/svg">
<path fill-rule="evenodd" clip-rule="evenodd" d="M22.75 5.5C22.75 4.771 22.46 4.071 21.945 3.555C21.429 3.04 20.729 2.75 20 2.75C16.168 2.75 7.832 2.75 4 2.75C3.271 2.75 2.571 3.04 2.055 3.555C1.54 4.071 1.25 4.771 1.25 5.5V15.5C1.25 17.019 2.481 18.25 4 18.25H9.379L11.498 21.057C11.784 21.314 12.216 21.314 12.502 21.057L14.621 18.25H20C21.519 18.25 22.75 17.019 22.75 15.5V5.5ZM12 14C12.552 14 13 14.448 13 15C13 15.552 12.552 16 12 16C11.448 16 11 15.552 11 15C11 14.448 11.448 14 12 14ZM10.285 8.149C10.447 7.351 11.154 6.75 12 6.75C12.966 6.75 13.75 7.534 13.75 8.5C13.75 9.466 12.966 10.25 12 10.25C11.586 10.25 11.25 10.586 11.25 11V13C11.25 13.414 11.586 13.75 12 13.75C12.414 13.75 12.75 13.414 12.75 13V11.663C14.183 11.324 15.25 10.036 15.25 8.5C15.25 6.706 13.794 5.25 12 5.25C10.429 5.25 9.117 6.368 8.815 7.851C8.733 8.256 8.995 8.652 9.401 8.735C9.806 8.817 10.203 8.555 10.285 8.149Z" fill="#0A0A0A"/>
</svg>
