<svg width="24" height="24" viewBox="0 0 24 24" fill="none" xmlns="http://www.w3.org/2000/svg">
<path fill-rule="evenodd" clip-rule="evenodd" d="M15.5 9.71326C15.5 12.7508 13.0376 15.2133 10 15.2133C6.96243 15.2133 4.5 12.7508 4.5 9.71326C4.5 6.67569 6.96243 4.21326 10 4.21326C13.0376 4.21326 15.5 6.67569 15.5 9.71326ZM14.3906 15.1654C13.1898 16.1336 11.6626 16.7133 10 16.7133C6.13401 16.7133 3 13.5793 3 9.71326C3 5.84726 6.13401 2.71326 10 2.71326C13.866 2.71326 17 5.84726 17 9.71326C17 11.3763 16.4201 12.9039 15.4514 14.1048L21.5294 20.1829L20.4688 21.2435L14.3906 15.1654Z" fill="#313131"/>
</svg>
