<svg width="24" height="24" viewBox="0 0 24 24" fill="none" xmlns="http://www.w3.org/2000/svg">
<path d="M21.1349 19.9954L16.4915 15.3613C17.7541 13.814 18.3737 11.8406 18.2221 9.84931C18.0705 7.85801 17.1593 6.00116 15.6771 4.66283C14.1948 3.32451 12.2548 2.60709 10.2585 2.65898C8.26208 2.71088 6.36201 3.52811 4.95128 4.94164C3.54054 6.35517 2.72708 8.25685 2.67914 10.2533C2.6312 12.2498 3.35245 14.1883 4.69371 15.668C6.03497 17.1476 7.89362 18.0551 9.88521 18.2027C11.8768 18.3504 13.849 17.7269 15.3937 16.4612L20.0371 21.0954C20.1838 21.2368 20.3802 21.3149 20.5839 21.313C20.7877 21.311 20.9825 21.2291 21.1265 21.0848C21.2704 20.9406 21.352 20.7456 21.3535 20.5419C21.3551 20.3381 21.2766 20.1419 21.1349 19.9954ZM10.4793 16.6697C9.2497 16.6709 8.04732 16.3075 7.02425 15.6254C6.00117 14.9432 5.20335 13.973 4.73166 12.8375C4.25998 11.7019 4.13562 10.452 4.37432 9.24575C4.61301 8.03951 5.20404 6.93114 6.07266 6.0608C6.94128 5.19046 8.04847 4.59724 9.25424 4.35616C10.46 4.11508 11.7102 4.23696 12.8467 4.70639C13.9832 5.17583 14.9549 5.97173 15.6391 6.99345C16.3232 8.01517 16.6891 9.21683 16.6903 10.4465C16.6901 12.0948 16.036 13.6757 14.8716 14.8424C13.7073 16.0091 12.1276 16.6662 10.4793 16.6697Z" fill="#0A0A0A"/>
</svg>
