<svg width="24" height="24" viewBox="0 0 24 24" fill="none" xmlns="http://www.w3.org/2000/svg">
<path d="M21.0469 2.12598C21.058 2.12658 21.069 2.12691 21.0801 2.12793C21.1142 2.13104 21.148 2.13647 21.1816 2.14355C21.1882 2.14495 21.1946 2.14689 21.2012 2.14844C21.2355 2.1565 21.2694 2.16646 21.3027 2.17871C21.305 2.17953 21.3074 2.17983 21.3096 2.18066C21.3799 2.20716 21.4469 2.24386 21.5098 2.28906C21.517 2.29422 21.5242 2.2993 21.5312 2.30469C21.5616 2.32796 21.5913 2.35306 21.6191 2.38086C21.6456 2.40737 21.669 2.43597 21.6914 2.46484C21.6967 2.47166 21.702 2.4784 21.707 2.48535C21.753 2.54839 21.7894 2.61591 21.8164 2.68652C21.8185 2.69201 21.8203 2.6976 21.8223 2.70312C21.8617 2.8127 21.8777 2.92799 21.8721 3.04297C21.8718 3.04784 21.8724 3.05274 21.8721 3.05762C21.867 3.13529 21.8509 3.21179 21.8252 3.28613C21.824 3.2895 21.8245 3.29352 21.8232 3.29688L15.3232 21.2969C15.315 21.3196 15.306 21.3423 15.2959 21.3643C15.1823 21.6121 14.9998 21.8224 14.7705 21.9697C14.5411 22.1169 14.2735 22.1961 14.001 22.1963C13.7283 22.1963 13.46 22.1169 13.2305 21.9697C13.0095 21.8278 12.833 21.6267 12.7188 21.3906L12.7178 21.3916L9.34766 14.6514L2.63672 11.2949C2.6337 11.2935 2.62998 11.2915 2.62695 11.29L2.60938 11.2822L2.61035 11.2812C2.37397 11.167 2.17235 10.9908 2.03027 10.7695C1.883 10.54 1.80474 10.2727 1.80469 10C1.80469 9.72719 1.88296 9.46008 2.03027 9.23047L2.15234 9.06738C2.28524 8.91389 2.44975 8.78935 2.63574 8.7041L2.70312 8.67676L20.667 2.18945C20.7168 2.16904 20.7682 2.15343 20.8203 2.14258C20.8219 2.14224 20.8236 2.14193 20.8252 2.1416C20.86 2.13455 20.8953 2.13071 20.9307 2.12793C20.9417 2.12705 20.9528 2.12643 20.9639 2.12598C20.9915 2.12484 21.0192 2.1245 21.0469 2.12598ZM11.0654 14.1729L13.9512 19.9443L18.8438 6.39355L11.0654 14.1729ZM4.05469 10.0488L9.82617 12.9346L17.6055 5.15527L4.05469 10.0488Z" fill="#0A0A0A"/>
</svg>
