<svg width="24" height="24" viewBox="0 0 24 24" fill="none" xmlns="http://www.w3.org/2000/svg">
<path d="M9.54388 3.87012C10.3494 1.46581 13.9029 1.54586 14.5253 4.11035V4.11133C14.5568 4.24097 14.6183 4.36149 14.705 4.46289C14.7919 4.5644 14.9019 4.64415 15.0253 4.69531C15.1488 4.74645 15.2827 4.76812 15.416 4.75781C15.5492 4.74748 15.6788 4.70533 15.7929 4.63574C18.1192 3.21874 20.782 5.88079 19.3652 8.20801C19.2957 8.32199 19.2544 8.45093 19.2441 8.58398C19.2338 8.71712 19.2545 8.85123 19.3056 8.97461C19.3567 9.09802 19.4366 9.20802 19.538 9.29492C19.6394 9.38169 19.7599 9.44306 19.8896 9.47461L20.1298 9.54395C22.5341 10.3495 22.4541 13.903 19.8896 14.5254H19.8886C19.759 14.5569 19.6384 14.6184 19.537 14.7051C19.4355 14.792 19.3558 14.902 19.3046 15.0254C19.2535 15.1488 19.2318 15.2828 19.2421 15.416C19.2525 15.5493 19.2946 15.6788 19.3642 15.793C20.7812 18.1193 18.1191 20.7821 15.7919 19.3652C15.6779 19.2958 15.549 19.2545 15.416 19.2441C15.2828 19.2338 15.1487 19.2546 15.0253 19.3057C14.9019 19.3568 14.7919 19.4366 14.705 19.5381C14.64 19.614 14.5893 19.7008 14.5546 19.7939L14.5253 19.8896C13.8828 22.5368 10.1171 22.5368 9.47455 19.8896V19.8887C9.44308 19.759 9.38156 19.6385 9.29486 19.5371C9.20799 19.4356 9.09797 19.3559 8.97455 19.3047C8.85111 19.2535 8.71714 19.2319 8.58392 19.2422C8.45066 19.2525 8.3211 19.2947 8.20697 19.3643C5.88069 20.7813 3.21788 18.1192 4.6347 15.792C4.70413 15.678 4.74545 15.5491 4.7558 15.416C4.7661 15.2829 4.74534 15.1488 4.69427 15.0254C4.64317 14.902 4.56329 14.792 4.46185 14.7051C4.38593 14.6401 4.29916 14.5894 4.20599 14.5547L4.11029 14.5254C1.46312 13.8829 1.46312 10.1171 4.11029 9.47461H4.11127C4.24091 9.44314 4.36143 9.38162 4.46283 9.29492C4.56434 9.20805 4.64409 9.09803 4.69525 8.97461C4.74639 8.85117 4.76806 8.7172 4.75775 8.58398C4.74742 8.45072 4.70527 8.32116 4.63568 8.20703C3.21869 5.88075 5.88074 3.21795 8.20795 4.63477L8.3017 4.68457C8.77935 4.90085 9.34695 4.63471 9.47455 4.11035L9.54388 3.87012ZM12.8242 4.52344C12.6145 3.65906 11.3854 3.65906 11.1757 4.52344H11.1747C10.7588 6.23382 8.80445 7.04499 7.29877 6.12988L7.29779 6.12891C6.53716 5.66621 5.66722 6.53732 6.12982 7.29688C6.34271 7.6461 6.47022 8.04047 6.50189 8.44824C6.53352 8.85621 6.46906 9.2665 6.31244 9.64453C6.15582 10.0225 5.91138 10.358 5.60052 10.624C5.28975 10.8899 4.92088 11.0794 4.52338 11.1758C3.659 11.3855 3.659 12.6145 4.52338 12.8242V12.8252C4.92061 12.9218 5.29004 13.11 5.60052 13.376C5.91093 13.6419 6.15404 13.9779 6.31049 14.3555C6.46692 14.7333 6.53247 15.1431 6.50092 15.5508C6.4733 15.9076 6.37236 16.2543 6.20502 16.5693L6.12885 16.7021C5.66615 17.4628 6.53726 18.3327 7.29681 17.8701C7.64604 17.6572 8.04041 17.5297 8.44818 17.498C8.85615 17.4664 9.26644 17.5309 9.64447 17.6875C10.0225 17.8441 10.3579 18.0886 10.624 18.3994C10.8899 18.7102 11.0794 19.0791 11.1757 19.4766C11.3854 20.3409 12.6145 20.3409 12.8242 19.4766H12.8251C12.9217 19.0793 13.11 18.7099 13.3759 18.3994C13.6418 18.089 13.9778 17.8459 14.3554 17.6895C14.7332 17.533 15.143 17.4675 15.5507 17.499C15.9584 17.5306 16.3529 17.6584 16.7021 17.8711L16.8456 17.9424C17.5662 18.2253 18.3038 17.4152 17.8701 16.7031C17.6572 16.3539 17.5297 15.9595 17.498 15.5518C17.4664 15.1438 17.5308 14.7335 17.6874 14.3555C17.8441 13.9775 18.0885 13.642 18.3994 13.376C18.7101 13.1101 19.079 12.9206 19.4765 12.8242C20.3409 12.6145 20.3409 11.3855 19.4765 11.1758V11.1748C19.0793 11.0782 18.7098 10.89 18.3994 10.624C18.0889 10.3581 17.8458 10.0221 17.6894 9.64453C17.533 9.26673 17.4674 8.85691 17.499 8.44922C17.5305 8.04153 17.6583 7.64707 17.871 7.29785L17.9423 7.1543C18.2253 6.43369 17.4152 5.69616 16.7031 6.12988C16.3538 6.34277 15.9595 6.47028 15.5517 6.50195C15.1437 6.53358 14.7334 6.46912 14.3554 6.3125C13.9774 6.15588 13.642 5.91144 13.3759 5.60059C13.11 5.28981 12.9205 4.92094 12.8242 4.52344ZM11.9999 8.125C13.0276 8.125 14.0135 8.53307 14.7402 9.25977C15.4669 9.98647 15.8749 10.9723 15.8749 12C15.8749 13.0277 15.4669 14.0135 14.7402 14.7402C14.0135 15.4669 13.0276 15.875 11.9999 15.875C10.9722 15.875 9.9864 15.4669 9.2597 14.7402C8.53301 14.0135 8.12494 13.0277 8.12494 12C8.12494 10.9723 8.53301 9.98647 9.2597 9.25977C9.9864 8.53307 10.9722 8.12501 11.9999 8.125ZM11.9999 9.875C11.4364 9.87501 10.8955 10.0986 10.497 10.4971C10.0985 10.8956 9.87494 11.4364 9.87494 12C9.87494 12.5636 10.0985 13.1044 10.497 13.5029C10.8955 13.9014 11.4364 14.125 11.9999 14.125C12.5635 14.125 13.1044 13.9014 13.5029 13.5029C13.9014 13.1044 14.1249 12.5636 14.1249 12C14.1249 11.4364 13.9014 10.8956 13.5029 10.4971C13.1044 10.0986 12.5635 9.875 11.9999 9.875Z" fill="#0A0A0A"/>
</svg>
