<svg width="24" height="24" viewBox="0 0 24 24" fill="none" xmlns="http://www.w3.org/2000/svg">
<path d="M12 21C10.7511 21 9.58103 20.7638 8.48974 20.2914C7.39826 19.819 6.44665 19.1769 5.63488 18.3651C4.82312 17.5534 4.18103 16.6017 3.70862 15.5103C3.23621 14.419 3 13.2489 3 12C3 10.7511 3.23621 9.58103 3.70862 8.48974C4.18103 7.39827 4.82312 6.44665 5.63488 5.63488C6.44665 4.82312 7.39826 4.18103 8.48974 3.70862C9.58103 3.23621 10.7511 3 12 3C13.2489 3 14.419 3.23621 15.5103 3.70862C16.6017 4.18103 17.5534 4.82312 18.3651 5.63488C19.1769 6.44665 19.819 7.39827 20.2914 8.48974C20.7638 9.58103 21 10.7511 21 12C21 13.2489 20.7638 14.419 20.2914 15.5103C19.819 16.6017 19.1769 17.5534 18.3651 18.3651C17.5534 19.1769 16.6017 19.819 15.5103 20.2914C14.419 20.7638 13.2489 21 12 21ZM15.1479 16.2639L16.2639 15.1479L12.7941 11.6784V6.70588H11.2059V12.3216L15.1479 16.2639ZM12 19.4118C14.058 19.4118 15.8078 18.691 17.2494 17.2494C18.691 15.8078 19.4118 14.058 19.4118 12C19.4118 9.942 18.691 8.19221 17.2494 6.75062C15.8078 5.30903 14.058 4.58824 12 4.58824C9.942 4.58824 8.19221 5.30903 6.75062 6.75062C5.30903 8.19221 4.58824 9.942 4.58824 12C4.58824 14.058 5.30903 15.8078 6.75062 17.2494C8.19221 18.691 9.942 19.4118 12 19.4118Z" fill="#313131"/>
</svg>
