<svg width="24" height="24" viewBox="0 0 24 24" fill="none" xmlns="http://www.w3.org/2000/svg">
<path d="M19 15.125C20.0277 15.125 21.0135 15.5331 21.7402 16.2598C22.4669 16.9865 22.875 17.9723 22.875 19C22.875 20.0277 22.4669 21.0135 21.7402 21.7402C21.0135 22.4669 20.0277 22.875 19 22.875C17.9723 22.875 16.9865 22.4669 16.2598 21.7402C15.5331 21.0135 15.125 20.0277 15.125 19C15.125 17.9723 15.5331 16.9865 16.2598 16.2598C16.9865 15.5331 17.9723 15.125 19 15.125ZM13.5 14.125C13.9832 14.125 14.375 14.5168 14.375 15C14.375 15.4832 13.9832 15.875 13.5 15.875H10C9.1712 15.875 8.37609 16.204 7.79004 16.79C7.20399 17.3761 6.875 18.1712 6.875 19V21C6.875 21.4832 6.48325 21.875 6 21.875C5.51675 21.875 5.125 21.4832 5.125 21V19C5.125 17.7071 5.63849 16.467 6.55273 15.5527C7.46697 14.6385 8.70707 14.125 10 14.125H13.5ZM18.251 20.9863C18.4884 21.0758 18.7414 21.125 19 21.125C19.5636 21.125 20.1044 20.9014 20.5029 20.5029C20.9014 20.1044 21.125 19.5636 21.125 19C21.125 18.7414 21.0758 18.4884 20.9863 18.251L18.251 20.9863ZM19 16.875C18.4364 16.875 17.8956 17.0986 17.4971 17.4971C17.0986 17.8956 16.875 18.4364 16.875 19C16.875 19.2582 16.9236 19.5109 17.0127 19.748L19.748 17.0127C19.5109 16.9236 19.2582 16.875 19 16.875ZM12 2.125C13.2929 2.125 14.533 2.63849 15.4473 3.55273C16.3615 4.46697 16.875 5.70707 16.875 7C16.875 8.29293 16.3615 9.53303 15.4473 10.4473C14.533 11.3615 13.2929 11.875 12 11.875C10.7071 11.875 9.46697 11.3615 8.55273 10.4473C7.63849 9.53303 7.125 8.29293 7.125 7C7.125 5.70707 7.63849 4.46697 8.55273 3.55273C9.46697 2.63849 10.7071 2.125 12 2.125ZM12 3.875C11.1712 3.875 10.3761 4.20399 9.79004 4.79004C9.20399 5.37609 8.875 6.1712 8.875 7C8.875 7.8288 9.20399 8.62391 9.79004 9.20996C10.3761 9.79601 11.1712 10.125 12 10.125C12.8288 10.125 13.6239 9.79601 14.21 9.20996C14.796 8.62391 15.125 7.8288 15.125 7C15.125 6.1712 14.796 5.37609 14.21 4.79004C13.6239 4.20399 12.8288 3.875 12 3.875Z" fill="#0A0A0A"/>
</svg>
