<svg width="24" height="24" viewBox="0 0 24 24" fill="none" xmlns="http://www.w3.org/2000/svg">
<path d="M12 13C16.2714 13 19.0184 14.4465 20.4727 16.6553C21.3752 18.0261 21.03 19.4525 20.1074 20.4473C19.2222 21.4016 17.7962 21.9999 16.3115 22H7.68848C6.20379 21.9999 4.77766 21.4016 3.89258 20.4473C2.96993 19.4525 2.62487 18.0261 3.52734 16.6553C4.98158 14.4465 7.72865 13 12 13ZM12 2C14.7614 2 17 4.23858 17 7C17 9.76142 14.7614 12 12 12C9.23858 12 7 9.76142 7 7C7 4.23858 9.23858 2 12 2Z" fill="#0A0A0A"/>
</svg>
