<svg width="24" height="24" viewBox="0 0 24 24" fill="none" xmlns="http://www.w3.org/2000/svg">
<path d="M19.7616 21.8693L15.7156 17.8538C15.2027 18.0436 14.6344 18.1988 14.0106 18.3193C13.3869 18.4398 12.7167 18.5 12.0001 18.5C9.65007 18.5 7.53666 17.8538 5.65982 16.5615C3.78282 15.2692 2.40907 13.582 1.53857 11.5C1.90774 10.6167 2.38466 9.79267 2.96932 9.028C3.55399 8.26317 4.19757 7.6 4.90007 7.0385L2.13082 4.2385L3.18482 3.18475L20.8153 20.8153L19.7616 21.8693ZM12.0001 15.577C12.2091 15.577 12.4232 15.559 12.6423 15.523C12.8617 15.4872 13.0566 15.4346 13.2271 15.3653L8.13482 10.273C8.06549 10.4563 8.01291 10.656 7.97707 10.872C7.94107 11.0882 7.92307 11.2975 7.92307 11.5C7.92307 12.6347 8.31891 13.5978 9.11058 14.3895C9.90224 15.1812 10.8654 15.577 12.0001 15.577ZM18.9538 16.0845L15.8173 12.973C15.8955 12.7602 15.9583 12.532 16.0058 12.2885C16.0533 12.0448 16.0771 11.782 16.0771 11.5C16.0771 10.3653 15.6812 9.40217 14.8896 8.6105C14.0979 7.81884 13.1347 7.423 12.0001 7.423C11.7181 7.423 11.4585 7.44834 11.2213 7.499C10.9842 7.54967 10.7559 7.62567 10.5366 7.727L8.03482 5.23475C8.66682 4.98342 9.31233 4.79817 9.97132 4.679C10.6303 4.55967 11.3066 4.5 12.0001 4.5C14.3436 4.5 16.457 5.14617 18.3403 6.4385C20.2237 7.73084 21.5974 9.418 22.4616 11.5C22.0911 12.3935 21.6126 13.2275 21.0261 14.002C20.4394 14.7763 19.7487 15.4705 18.9538 16.0845ZM14.6846 11.85L11.6751 8.85C12.1161 8.76667 12.5324 8.79934 12.9241 8.948C13.3157 9.09684 13.6532 9.318 13.9366 9.6115C14.2264 9.90517 14.4386 10.2494 14.5731 10.6443C14.7077 11.0391 14.7449 11.441 14.6846 11.85Z" fill="#313131"/>
</svg>
