<svg width="24" height="24" viewBox="0 0 24 24" fill="none" xmlns="http://www.w3.org/2000/svg">
<path d="M12.0023 15.577C13.1355 15.577 14.0979 15.1804 14.8896 14.3872C15.6812 13.5941 16.0771 12.6309 16.0771 11.4978C16.0771 10.3646 15.6805 9.40217 14.8873 8.6105C14.0942 7.81883 13.131 7.423 11.9978 7.423C10.8647 7.423 9.90224 7.81958 9.11058 8.61275C8.31891 9.40592 7.92307 10.3691 7.92307 11.5023C7.92307 12.6354 8.31966 13.5978 9.11282 14.3895C9.90599 15.1812 10.8692 15.577 12.0023 15.577ZM12.0001 14.2C11.2501 14.2 10.6126 13.9375 10.0876 13.4125C9.56258 12.8875 9.30007 12.25 9.30007 11.5C9.30007 10.75 9.56258 10.1125 10.0876 9.5875C10.6126 9.0625 11.2501 8.8 12.0001 8.8C12.7501 8.8 13.3876 9.0625 13.9126 9.5875C14.4376 10.1125 14.7001 10.75 14.7001 11.5C14.7001 12.25 14.4376 12.8875 13.9126 13.4125C13.3876 13.9375 12.7501 14.2 12.0001 14.2ZM12.0013 18.5C9.70182 18.5 7.60657 17.8657 5.71557 16.597C3.82457 15.3285 2.43224 13.6295 1.53857 11.5C2.43224 9.3705 3.82407 7.6715 5.71407 6.403C7.60424 5.13433 9.69916 4.5 11.9988 4.5C14.2983 4.5 16.3936 5.13433 18.2846 6.403C20.1756 7.6715 21.5679 9.3705 22.4616 11.5C21.5679 13.6295 20.1761 15.3285 18.2861 16.597C16.3959 17.8657 14.301 18.5 12.0013 18.5Z" fill="#313131"/>
</svg>
