<svg width="24" height="24" viewBox="0 0 24 24" fill="none" xmlns="http://www.w3.org/2000/svg">
<path d="M19.7615 21.8692L15.7155 17.8537C15.2026 18.0435 14.6343 18.1987 14.0105 18.3192C13.3868 18.4397 12.7166 18.4999 12 18.4999C9.64995 18.4999 7.53654 17.8538 5.6597 16.5614C3.7827 15.2691 2.40895 13.5819 1.53845 11.4999C1.90762 10.6166 2.38454 9.79261 2.9692 9.02794C3.55387 8.26311 4.19745 7.59994 4.89995 7.03844L2.1307 4.23844L3.1847 3.18469L20.8152 20.8152L19.7615 21.8692ZM12 15.5769C12.209 15.5769 12.423 15.5589 12.6422 15.5229C12.8615 15.4871 13.0565 15.4345 13.227 15.3652L8.1347 10.2729C8.06537 10.4563 8.01279 10.6559 7.97695 10.8719C7.94095 11.0881 7.92295 11.2974 7.92295 11.4999C7.92295 12.6346 8.31879 13.5978 9.11045 14.3894C9.90212 15.1811 10.8653 15.5769 12 15.5769ZM18.9537 16.0844L15.8172 12.9729C15.8954 12.7601 15.9582 12.5319 16.0057 12.2884C16.0532 12.0448 16.077 11.7819 16.077 11.4999C16.077 10.3653 15.6811 9.40211 14.8895 8.61044C14.0978 7.81878 13.1346 7.42294 12 7.42294C11.718 7.42294 11.4584 7.44828 11.2212 7.49894C10.984 7.54961 10.7558 7.62561 10.5365 7.72694L8.0347 5.23469C8.6667 4.98336 9.3122 4.79811 9.9712 4.67894C10.6302 4.55961 11.3065 4.49994 12 4.49994C14.3435 4.49994 16.4569 5.14611 18.3402 6.43844C20.2235 7.73077 21.5973 9.41794 22.4615 11.4999C22.091 12.3934 21.6125 13.2274 21.026 14.0019C20.4393 14.7763 19.7485 15.4704 18.9537 16.0844ZM14.6845 11.8499L11.675 8.84994C12.116 8.76661 12.5323 8.79927 12.924 8.94794C13.3156 9.09678 13.6531 9.31794 13.9365 9.61144C14.2263 9.90511 14.4385 10.2494 14.573 10.6442C14.7076 11.039 14.7448 11.4409 14.6845 11.8499Z" fill="#0A0A0A"/>
</svg>
