<svg width="24" height="24" viewBox="0 0 24 24" fill="none" xmlns="http://www.w3.org/2000/svg">
<path d="M12 2.25C13.2804 2.25 14.5485 2.5022 15.7314 2.99219C16.9143 3.48217 17.9892 4.20016 18.8945 5.10547C19.7998 6.01078 20.5178 7.08573 21.0078 8.26855C21.4978 9.45148 21.75 10.7196 21.75 12C21.75 13.0528 21.5762 14.0961 21.2432 15.0918C21.2304 15.1958 21.1944 15.2915 21.1436 15.3779C21.0998 15.4963 21.0562 15.6147 21.0078 15.7314C20.5178 16.9143 19.7998 17.9892 18.8945 18.8945C17.9892 19.7998 16.9143 20.5178 15.7314 21.0078C15.6147 21.0562 15.4963 21.0998 15.3779 21.1436C15.2915 21.1944 15.1958 21.2304 15.0918 21.2432C14.0961 21.5762 13.0528 21.75 12 21.75C10.7196 21.75 9.45148 21.4978 8.26855 21.0078C7.08573 20.5178 6.01078 19.7998 5.10547 18.8945C4.20016 17.9892 3.48217 16.9143 2.99219 15.7314C2.5022 14.5485 2.25 13.2804 2.25 12C2.25 10.7196 2.5022 9.45148 2.99219 8.26855C3.48217 7.08573 4.20016 6.01078 5.10547 5.10547C5.52336 4.68758 5.97878 4.3116 6.46289 3.97754C6.53627 3.90212 6.62507 3.84208 6.72461 3.80273C7.2133 3.4883 7.72913 3.21564 8.26855 2.99219C9.45148 2.5022 10.7196 2.25 12 2.25ZM6.16602 6.16602C5.39995 6.93209 4.79253 7.84186 4.37793 8.84277C4.05932 9.61196 3.86057 10.4237 3.78516 11.25H6C6.72935 11.25 7.42861 11.5399 7.94434 12.0557C8.46006 12.5714 8.75 13.2707 8.75 14V14.5C8.75 14.6989 8.82907 14.8896 8.96973 15.0303C9.11038 15.1709 9.30109 15.25 9.5 15.25C10.0967 15.25 10.6689 15.4872 11.0908 15.9092C11.5128 16.3311 11.75 16.9033 11.75 17.5V20.2432C11.8333 20.2457 11.9166 20.25 12 20.25C12.7626 20.25 13.5193 20.1418 14.25 19.9346V17C14.25 16.2707 14.5399 15.5714 15.0557 15.0557C15.5714 14.5399 16.2707 14.25 17 14.25H19.9355C20.1427 13.5193 20.25 12.7625 20.25 12C20.25 10.9166 20.0367 9.84371 19.6221 8.84277C19.6091 8.81153 19.5944 8.78107 19.5811 8.75H18C17.6685 8.75 17.3506 8.88179 17.1162 9.11621C16.8818 9.35063 16.75 9.66848 16.75 10C16.75 10.7293 16.4601 11.4286 15.9443 11.9443C15.4286 12.4601 14.7293 12.75 14 12.75C13.2707 12.75 12.5714 12.4601 12.0557 11.9443C11.5399 11.4286 11.25 10.7293 11.25 10V9C11.25 8.66848 11.1182 8.35063 10.8838 8.11621C10.6494 7.88179 10.3315 7.75 10 7.75H9C8.27065 7.75 7.57139 7.46006 7.05566 6.94434C6.76624 6.65491 6.5509 6.30662 6.41504 5.92871C6.33071 6.00627 6.24718 6.08485 6.16602 6.16602ZM3.78516 12.75C3.86057 13.5763 4.05932 14.388 4.37793 15.1572C4.79253 16.1581 5.39995 17.0679 6.16602 17.834C6.93209 18.6001 7.84186 19.2075 8.84277 19.6221C9.29867 19.8109 9.77006 19.9554 10.25 20.0596V17.5C10.25 17.3011 10.1709 17.1104 10.0303 16.9697C9.88962 16.8291 9.69891 16.75 9.5 16.75C8.90326 16.75 8.33114 16.5128 7.90918 16.0908C7.48722 15.6689 7.25 15.0967 7.25 14.5V14C7.25 13.6685 7.11821 13.3506 6.88379 13.1162C6.64937 12.8818 6.33152 12.75 6 12.75H3.78516ZM17 15.75C16.6685 15.75 16.3506 15.8818 16.1162 16.1162C15.8818 16.3506 15.75 16.6685 15.75 17V19.3457C16.518 18.9537 17.2224 18.4456 17.834 17.834C18.4456 17.2224 18.9537 16.518 19.3457 15.75H17ZM12 3.75C10.9166 3.75 9.84371 3.96333 8.84277 4.37793C8.46455 4.5346 8.09936 4.71882 7.75 4.92871V5C7.75 5.33152 7.88179 5.64937 8.11621 5.88379C8.35063 6.11821 8.66848 6.25 9 6.25H10C10.7293 6.25 11.4286 6.53994 11.9443 7.05566C12.4601 7.57139 12.75 8.27065 12.75 9V10C12.75 10.3315 12.8818 10.6494 13.1162 10.8838C13.3506 11.1182 13.6685 11.25 14 11.25C14.3315 11.25 14.6494 11.1182 14.8838 10.8838C15.1182 10.6494 15.25 10.3315 15.25 10C15.25 9.27065 15.5399 8.57139 16.0557 8.05566C16.5714 7.53994 17.2707 7.25 18 7.25H18.7422C18.4709 6.86471 18.1688 6.5008 17.834 6.16602C17.0679 5.39995 16.1581 4.79253 15.1572 4.37793C14.1563 3.96333 13.0834 3.75 12 3.75Z" fill="#0A0A0A"/>
</svg>
